G04 #@! TF.GenerationSoftware,KiCad,Pcbnew,(5.0.2)-1*
G04 #@! TF.CreationDate,2019-04-06T01:42:29-07:00*
G04 #@! TF.ProjectId,Voyager87,566f7961-6765-4723-9837-2e6b69636164,rev?*
G04 #@! TF.SameCoordinates,Original*
G04 #@! TF.FileFunction,Legend,Top*
G04 #@! TF.FilePolarity,Positive*
%FSLAX46Y46*%
G04 Gerber Fmt 4.6, Leading zero omitted, Abs format (unit mm)*
G04 Created by KiCad (PCBNEW (5.0.2)-1) date 4/6/2019 1:42:29 AM*
%MOMM*%
%LPD*%
G01*
G04 APERTURE LIST*
%ADD10C,0.010000*%
%ADD11C,2.150000*%
%ADD12C,4.387800*%
%ADD13O,1.400000X2.000000*%
%ADD14O,1.400000X2.500000*%
%ADD15C,1.050000*%
%ADD16C,1.300000*%
%ADD17C,3.448000*%
G04 APERTURE END LIST*
D10*
G04 #@! TO.C,G\002A\002A\002A*
G36*
X161535802Y-136617303D02*
X161560545Y-136637389D01*
X161586333Y-136667370D01*
X161586333Y-139261296D01*
X161560933Y-139289723D01*
X161524120Y-139317115D01*
X161482683Y-139325443D01*
X161454897Y-139319338D01*
X161445746Y-139315949D01*
X161437566Y-139312958D01*
X161430301Y-139309150D01*
X161423898Y-139303308D01*
X161418302Y-139294218D01*
X161413460Y-139280663D01*
X161409316Y-139261429D01*
X161405818Y-139235300D01*
X161402910Y-139201059D01*
X161400539Y-139157492D01*
X161398651Y-139103384D01*
X161397190Y-139037518D01*
X161396104Y-138958679D01*
X161395337Y-138865652D01*
X161394836Y-138757221D01*
X161394547Y-138632170D01*
X161394415Y-138489284D01*
X161394386Y-138327348D01*
X161394407Y-138145146D01*
X161394422Y-137962450D01*
X161394422Y-136667370D01*
X161420210Y-136637389D01*
X161454869Y-136612593D01*
X161495805Y-136605897D01*
X161535802Y-136617303D01*
X161535802Y-136617303D01*
G37*
X161535802Y-136617303D02*
X161560545Y-136637389D01*
X161586333Y-136667370D01*
X161586333Y-139261296D01*
X161560933Y-139289723D01*
X161524120Y-139317115D01*
X161482683Y-139325443D01*
X161454897Y-139319338D01*
X161445746Y-139315949D01*
X161437566Y-139312958D01*
X161430301Y-139309150D01*
X161423898Y-139303308D01*
X161418302Y-139294218D01*
X161413460Y-139280663D01*
X161409316Y-139261429D01*
X161405818Y-139235300D01*
X161402910Y-139201059D01*
X161400539Y-139157492D01*
X161398651Y-139103384D01*
X161397190Y-139037518D01*
X161396104Y-138958679D01*
X161395337Y-138865652D01*
X161394836Y-138757221D01*
X161394547Y-138632170D01*
X161394415Y-138489284D01*
X161394386Y-138327348D01*
X161394407Y-138145146D01*
X161394422Y-137962450D01*
X161394422Y-136667370D01*
X161420210Y-136637389D01*
X161454869Y-136612593D01*
X161495805Y-136605897D01*
X161535802Y-136617303D01*
G36*
X160357528Y-136621114D02*
X160374109Y-136633495D01*
X160401000Y-136658757D01*
X160401000Y-139271837D01*
X160366267Y-139301063D01*
X160332511Y-139323833D01*
X160302227Y-139328561D01*
X160267106Y-139316467D01*
X160265756Y-139315788D01*
X160238841Y-139294480D01*
X160223589Y-139273621D01*
X160221595Y-139258557D01*
X160219730Y-139222665D01*
X160217998Y-139167695D01*
X160216400Y-139095395D01*
X160214939Y-139007515D01*
X160213617Y-138905804D01*
X160212438Y-138792013D01*
X160211403Y-138667890D01*
X160210514Y-138535184D01*
X160209776Y-138395646D01*
X160209189Y-138251024D01*
X160208758Y-138103067D01*
X160208483Y-137953527D01*
X160208367Y-137804150D01*
X160208414Y-137656688D01*
X160208626Y-137512889D01*
X160209004Y-137374502D01*
X160209552Y-137243278D01*
X160210273Y-137120966D01*
X160211168Y-137009314D01*
X160212240Y-136910073D01*
X160213492Y-136824991D01*
X160214926Y-136755819D01*
X160216545Y-136704305D01*
X160218351Y-136672198D01*
X160219837Y-136661887D01*
X160242738Y-136629915D01*
X160277777Y-136611642D01*
X160318269Y-136608298D01*
X160357528Y-136621114D01*
X160357528Y-136621114D01*
G37*
X160357528Y-136621114D02*
X160374109Y-136633495D01*
X160401000Y-136658757D01*
X160401000Y-139271837D01*
X160366267Y-139301063D01*
X160332511Y-139323833D01*
X160302227Y-139328561D01*
X160267106Y-139316467D01*
X160265756Y-139315788D01*
X160238841Y-139294480D01*
X160223589Y-139273621D01*
X160221595Y-139258557D01*
X160219730Y-139222665D01*
X160217998Y-139167695D01*
X160216400Y-139095395D01*
X160214939Y-139007515D01*
X160213617Y-138905804D01*
X160212438Y-138792013D01*
X160211403Y-138667890D01*
X160210514Y-138535184D01*
X160209776Y-138395646D01*
X160209189Y-138251024D01*
X160208758Y-138103067D01*
X160208483Y-137953527D01*
X160208367Y-137804150D01*
X160208414Y-137656688D01*
X160208626Y-137512889D01*
X160209004Y-137374502D01*
X160209552Y-137243278D01*
X160210273Y-137120966D01*
X160211168Y-137009314D01*
X160212240Y-136910073D01*
X160213492Y-136824991D01*
X160214926Y-136755819D01*
X160216545Y-136704305D01*
X160218351Y-136672198D01*
X160219837Y-136661887D01*
X160242738Y-136629915D01*
X160277777Y-136611642D01*
X160318269Y-136608298D01*
X160357528Y-136621114D01*
G36*
X157554130Y-136629945D02*
X157568357Y-136642664D01*
X157601355Y-136675663D01*
X157601948Y-137480864D01*
X157602540Y-138286066D01*
X158428859Y-137454238D01*
X158574850Y-137307434D01*
X158705609Y-137176295D01*
X158821656Y-137060313D01*
X158923512Y-136958978D01*
X159011699Y-136871781D01*
X159086735Y-136798214D01*
X159149143Y-136737768D01*
X159199442Y-136689933D01*
X159238154Y-136654202D01*
X159265799Y-136630065D01*
X159282898Y-136617012D01*
X159288262Y-136614302D01*
X159329241Y-136614568D01*
X159365634Y-136632497D01*
X159392528Y-136663175D01*
X159405007Y-136701690D01*
X159402969Y-136728982D01*
X159395271Y-136742256D01*
X159375659Y-136766706D01*
X159343590Y-136802905D01*
X159298516Y-136851423D01*
X159239893Y-136912833D01*
X159167175Y-136987708D01*
X159079817Y-137076618D01*
X158977272Y-137180137D01*
X158870655Y-137287159D01*
X158780741Y-137377348D01*
X158695699Y-137462895D01*
X158616850Y-137542456D01*
X158545513Y-137614688D01*
X158483011Y-137678245D01*
X158430664Y-137731783D01*
X158389792Y-137773959D01*
X158361717Y-137803427D01*
X158347758Y-137818843D01*
X158346422Y-137820791D01*
X158353232Y-137830831D01*
X158372937Y-137857195D01*
X158404448Y-137898482D01*
X158446677Y-137953290D01*
X158498536Y-138020217D01*
X158558935Y-138097861D01*
X158626786Y-138184820D01*
X158701001Y-138279694D01*
X158780492Y-138381079D01*
X158863463Y-138486676D01*
X158947661Y-138593769D01*
X159028110Y-138696184D01*
X159103670Y-138792464D01*
X159173198Y-138881150D01*
X159235555Y-138960783D01*
X159289598Y-139029906D01*
X159334186Y-139087059D01*
X159368179Y-139130785D01*
X159390435Y-139159625D01*
X159399685Y-139171934D01*
X159417472Y-139214631D01*
X159412971Y-139256925D01*
X159386409Y-139296746D01*
X159385868Y-139297290D01*
X159348532Y-139323828D01*
X159311503Y-139327839D01*
X159273830Y-139309336D01*
X159262096Y-139299244D01*
X159249812Y-139285387D01*
X159224814Y-139255232D01*
X159188291Y-139210270D01*
X159141432Y-139151995D01*
X159085426Y-139081896D01*
X159021464Y-139001465D01*
X158950733Y-138912194D01*
X158874424Y-138815575D01*
X158793725Y-138713099D01*
X158724316Y-138624733D01*
X158641521Y-138519227D01*
X158562678Y-138418809D01*
X158488913Y-138324910D01*
X158421351Y-138238960D01*
X158361117Y-138162386D01*
X158309335Y-138096619D01*
X158267131Y-138043089D01*
X158235628Y-138003225D01*
X158215954Y-137978456D01*
X158209333Y-137970299D01*
X158198780Y-137975183D01*
X158173528Y-137995544D01*
X158134481Y-138030541D01*
X158082541Y-138079331D01*
X158018614Y-138141074D01*
X157943603Y-138214927D01*
X157900269Y-138258086D01*
X157601355Y-138556840D01*
X157601355Y-138909068D01*
X157601320Y-139007459D01*
X157601103Y-139085798D01*
X157600536Y-139146606D01*
X157599449Y-139192410D01*
X157597676Y-139225733D01*
X157595046Y-139249100D01*
X157591392Y-139265035D01*
X157586545Y-139276062D01*
X157580337Y-139284705D01*
X157575955Y-139289723D01*
X157539142Y-139317115D01*
X157497705Y-139325443D01*
X157469919Y-139319338D01*
X157460755Y-139315942D01*
X157452564Y-139312942D01*
X157445291Y-139309119D01*
X157438883Y-139303257D01*
X157433284Y-139294137D01*
X157428440Y-139280542D01*
X157424297Y-139261255D01*
X157420801Y-139235058D01*
X157417896Y-139200733D01*
X157415529Y-139157064D01*
X157413645Y-139102832D01*
X157412189Y-139036821D01*
X157411108Y-138957812D01*
X157410346Y-138864588D01*
X157409850Y-138755932D01*
X157409565Y-138630625D01*
X157409436Y-138487452D01*
X157409409Y-138325193D01*
X157409430Y-138142632D01*
X157409444Y-137966597D01*
X157409444Y-136675663D01*
X157442443Y-136642664D01*
X157479953Y-136615886D01*
X157516918Y-136611647D01*
X157554130Y-136629945D01*
X157554130Y-136629945D01*
G37*
X157554130Y-136629945D02*
X157568357Y-136642664D01*
X157601355Y-136675663D01*
X157601948Y-137480864D01*
X157602540Y-138286066D01*
X158428859Y-137454238D01*
X158574850Y-137307434D01*
X158705609Y-137176295D01*
X158821656Y-137060313D01*
X158923512Y-136958978D01*
X159011699Y-136871781D01*
X159086735Y-136798214D01*
X159149143Y-136737768D01*
X159199442Y-136689933D01*
X159238154Y-136654202D01*
X159265799Y-136630065D01*
X159282898Y-136617012D01*
X159288262Y-136614302D01*
X159329241Y-136614568D01*
X159365634Y-136632497D01*
X159392528Y-136663175D01*
X159405007Y-136701690D01*
X159402969Y-136728982D01*
X159395271Y-136742256D01*
X159375659Y-136766706D01*
X159343590Y-136802905D01*
X159298516Y-136851423D01*
X159239893Y-136912833D01*
X159167175Y-136987708D01*
X159079817Y-137076618D01*
X158977272Y-137180137D01*
X158870655Y-137287159D01*
X158780741Y-137377348D01*
X158695699Y-137462895D01*
X158616850Y-137542456D01*
X158545513Y-137614688D01*
X158483011Y-137678245D01*
X158430664Y-137731783D01*
X158389792Y-137773959D01*
X158361717Y-137803427D01*
X158347758Y-137818843D01*
X158346422Y-137820791D01*
X158353232Y-137830831D01*
X158372937Y-137857195D01*
X158404448Y-137898482D01*
X158446677Y-137953290D01*
X158498536Y-138020217D01*
X158558935Y-138097861D01*
X158626786Y-138184820D01*
X158701001Y-138279694D01*
X158780492Y-138381079D01*
X158863463Y-138486676D01*
X158947661Y-138593769D01*
X159028110Y-138696184D01*
X159103670Y-138792464D01*
X159173198Y-138881150D01*
X159235555Y-138960783D01*
X159289598Y-139029906D01*
X159334186Y-139087059D01*
X159368179Y-139130785D01*
X159390435Y-139159625D01*
X159399685Y-139171934D01*
X159417472Y-139214631D01*
X159412971Y-139256925D01*
X159386409Y-139296746D01*
X159385868Y-139297290D01*
X159348532Y-139323828D01*
X159311503Y-139327839D01*
X159273830Y-139309336D01*
X159262096Y-139299244D01*
X159249812Y-139285387D01*
X159224814Y-139255232D01*
X159188291Y-139210270D01*
X159141432Y-139151995D01*
X159085426Y-139081896D01*
X159021464Y-139001465D01*
X158950733Y-138912194D01*
X158874424Y-138815575D01*
X158793725Y-138713099D01*
X158724316Y-138624733D01*
X158641521Y-138519227D01*
X158562678Y-138418809D01*
X158488913Y-138324910D01*
X158421351Y-138238960D01*
X158361117Y-138162386D01*
X158309335Y-138096619D01*
X158267131Y-138043089D01*
X158235628Y-138003225D01*
X158215954Y-137978456D01*
X158209333Y-137970299D01*
X158198780Y-137975183D01*
X158173528Y-137995544D01*
X158134481Y-138030541D01*
X158082541Y-138079331D01*
X158018614Y-138141074D01*
X157943603Y-138214927D01*
X157900269Y-138258086D01*
X157601355Y-138556840D01*
X157601355Y-138909068D01*
X157601320Y-139007459D01*
X157601103Y-139085798D01*
X157600536Y-139146606D01*
X157599449Y-139192410D01*
X157597676Y-139225733D01*
X157595046Y-139249100D01*
X157591392Y-139265035D01*
X157586545Y-139276062D01*
X157580337Y-139284705D01*
X157575955Y-139289723D01*
X157539142Y-139317115D01*
X157497705Y-139325443D01*
X157469919Y-139319338D01*
X157460755Y-139315942D01*
X157452564Y-139312942D01*
X157445291Y-139309119D01*
X157438883Y-139303257D01*
X157433284Y-139294137D01*
X157428440Y-139280542D01*
X157424297Y-139261255D01*
X157420801Y-139235058D01*
X157417896Y-139200733D01*
X157415529Y-139157064D01*
X157413645Y-139102832D01*
X157412189Y-139036821D01*
X157411108Y-138957812D01*
X157410346Y-138864588D01*
X157409850Y-138755932D01*
X157409565Y-138630625D01*
X157409436Y-138487452D01*
X157409409Y-138325193D01*
X157409430Y-138142632D01*
X157409444Y-137966597D01*
X157409444Y-136675663D01*
X157442443Y-136642664D01*
X157479953Y-136615886D01*
X157516918Y-136611647D01*
X157554130Y-136629945D01*
G36*
X154263518Y-136620206D02*
X154271073Y-136623409D01*
X154278914Y-136627966D01*
X154287974Y-136635106D01*
X154299185Y-136646058D01*
X154313482Y-136662051D01*
X154331796Y-136684314D01*
X154355062Y-136714078D01*
X154384212Y-136752570D01*
X154420179Y-136801020D01*
X154463896Y-136860658D01*
X154516297Y-136932712D01*
X154578315Y-137018412D01*
X154650882Y-137118987D01*
X154734932Y-137235666D01*
X154812515Y-137343444D01*
X154888044Y-137448310D01*
X154959934Y-137547982D01*
X155027062Y-137640914D01*
X155088306Y-137725557D01*
X155142543Y-137800364D01*
X155188649Y-137863787D01*
X155225504Y-137914279D01*
X155251983Y-137950292D01*
X155266963Y-137970278D01*
X155269772Y-137973757D01*
X155274551Y-137973979D01*
X155283397Y-137967601D01*
X155297140Y-137953526D01*
X155316611Y-137930653D01*
X155342640Y-137897883D01*
X155376059Y-137854117D01*
X155417698Y-137798255D01*
X155468386Y-137729197D01*
X155528956Y-137645844D01*
X155600237Y-137547096D01*
X155683060Y-137431855D01*
X155755864Y-137330291D01*
X155834023Y-137221279D01*
X155908827Y-137117172D01*
X155979165Y-137019502D01*
X156043927Y-136929800D01*
X156102001Y-136849598D01*
X156152278Y-136780427D01*
X156193645Y-136723820D01*
X156224994Y-136681308D01*
X156245213Y-136654423D01*
X156252600Y-136645226D01*
X156287927Y-136622687D01*
X156329235Y-136617926D01*
X156368834Y-136630751D01*
X156390234Y-136648678D01*
X156416022Y-136678659D01*
X156416022Y-139271837D01*
X156381289Y-139301063D01*
X156355110Y-139319811D01*
X156333583Y-139329789D01*
X156329929Y-139330288D01*
X156301289Y-139323187D01*
X156269430Y-139306028D01*
X156244912Y-139285033D01*
X156239590Y-139277084D01*
X156238154Y-139263172D01*
X156236669Y-139228237D01*
X156235156Y-139173832D01*
X156233636Y-139101510D01*
X156232131Y-139012825D01*
X156230661Y-138909331D01*
X156229248Y-138792582D01*
X156227912Y-138664131D01*
X156226675Y-138525532D01*
X156225558Y-138378339D01*
X156224582Y-138224106D01*
X156224111Y-138136535D01*
X156218467Y-137016159D01*
X155780437Y-137624729D01*
X155705336Y-137728814D01*
X155633792Y-137827476D01*
X155566936Y-137919183D01*
X155505905Y-138002405D01*
X155451831Y-138075607D01*
X155405848Y-138137259D01*
X155369090Y-138185829D01*
X155342691Y-138219784D01*
X155327785Y-138237592D01*
X155325136Y-138239927D01*
X155277909Y-138246972D01*
X155233237Y-138233525D01*
X155209741Y-138215511D01*
X155197909Y-138201070D01*
X155174115Y-138169937D01*
X155139567Y-138123756D01*
X155095473Y-138064172D01*
X155043041Y-137992830D01*
X154983481Y-137911376D01*
X154917999Y-137821455D01*
X154847805Y-137724711D01*
X154774106Y-137622790D01*
X154756232Y-137598020D01*
X154333222Y-137011573D01*
X154327578Y-138142397D01*
X154326648Y-138327086D01*
X154325790Y-138490526D01*
X154324973Y-138634044D01*
X154324162Y-138758968D01*
X154323327Y-138866627D01*
X154322435Y-138958349D01*
X154321452Y-139035461D01*
X154320347Y-139099292D01*
X154319087Y-139151170D01*
X154317639Y-139192422D01*
X154315971Y-139224377D01*
X154314051Y-139248363D01*
X154311845Y-139265708D01*
X154309322Y-139277739D01*
X154306449Y-139285785D01*
X154303193Y-139291174D01*
X154299523Y-139295234D01*
X154299355Y-139295399D01*
X154266669Y-139316657D01*
X154229254Y-139325822D01*
X154203400Y-139322551D01*
X154182940Y-139310496D01*
X154161067Y-139293017D01*
X154135667Y-139269908D01*
X154135667Y-137978556D01*
X154135749Y-137756656D01*
X154135998Y-137556836D01*
X154136419Y-137378603D01*
X154137017Y-137221459D01*
X154137795Y-137084909D01*
X154138759Y-136968457D01*
X154139914Y-136871608D01*
X154141263Y-136793865D01*
X154142812Y-136734733D01*
X154144564Y-136693716D01*
X154146526Y-136670318D01*
X154147864Y-136664413D01*
X154171843Y-136639518D01*
X154207654Y-136622342D01*
X154245204Y-136616741D01*
X154263518Y-136620206D01*
X154263518Y-136620206D01*
G37*
X154263518Y-136620206D02*
X154271073Y-136623409D01*
X154278914Y-136627966D01*
X154287974Y-136635106D01*
X154299185Y-136646058D01*
X154313482Y-136662051D01*
X154331796Y-136684314D01*
X154355062Y-136714078D01*
X154384212Y-136752570D01*
X154420179Y-136801020D01*
X154463896Y-136860658D01*
X154516297Y-136932712D01*
X154578315Y-137018412D01*
X154650882Y-137118987D01*
X154734932Y-137235666D01*
X154812515Y-137343444D01*
X154888044Y-137448310D01*
X154959934Y-137547982D01*
X155027062Y-137640914D01*
X155088306Y-137725557D01*
X155142543Y-137800364D01*
X155188649Y-137863787D01*
X155225504Y-137914279D01*
X155251983Y-137950292D01*
X155266963Y-137970278D01*
X155269772Y-137973757D01*
X155274551Y-137973979D01*
X155283397Y-137967601D01*
X155297140Y-137953526D01*
X155316611Y-137930653D01*
X155342640Y-137897883D01*
X155376059Y-137854117D01*
X155417698Y-137798255D01*
X155468386Y-137729197D01*
X155528956Y-137645844D01*
X155600237Y-137547096D01*
X155683060Y-137431855D01*
X155755864Y-137330291D01*
X155834023Y-137221279D01*
X155908827Y-137117172D01*
X155979165Y-137019502D01*
X156043927Y-136929800D01*
X156102001Y-136849598D01*
X156152278Y-136780427D01*
X156193645Y-136723820D01*
X156224994Y-136681308D01*
X156245213Y-136654423D01*
X156252600Y-136645226D01*
X156287927Y-136622687D01*
X156329235Y-136617926D01*
X156368834Y-136630751D01*
X156390234Y-136648678D01*
X156416022Y-136678659D01*
X156416022Y-139271837D01*
X156381289Y-139301063D01*
X156355110Y-139319811D01*
X156333583Y-139329789D01*
X156329929Y-139330288D01*
X156301289Y-139323187D01*
X156269430Y-139306028D01*
X156244912Y-139285033D01*
X156239590Y-139277084D01*
X156238154Y-139263172D01*
X156236669Y-139228237D01*
X156235156Y-139173832D01*
X156233636Y-139101510D01*
X156232131Y-139012825D01*
X156230661Y-138909331D01*
X156229248Y-138792582D01*
X156227912Y-138664131D01*
X156226675Y-138525532D01*
X156225558Y-138378339D01*
X156224582Y-138224106D01*
X156224111Y-138136535D01*
X156218467Y-137016159D01*
X155780437Y-137624729D01*
X155705336Y-137728814D01*
X155633792Y-137827476D01*
X155566936Y-137919183D01*
X155505905Y-138002405D01*
X155451831Y-138075607D01*
X155405848Y-138137259D01*
X155369090Y-138185829D01*
X155342691Y-138219784D01*
X155327785Y-138237592D01*
X155325136Y-138239927D01*
X155277909Y-138246972D01*
X155233237Y-138233525D01*
X155209741Y-138215511D01*
X155197909Y-138201070D01*
X155174115Y-138169937D01*
X155139567Y-138123756D01*
X155095473Y-138064172D01*
X155043041Y-137992830D01*
X154983481Y-137911376D01*
X154917999Y-137821455D01*
X154847805Y-137724711D01*
X154774106Y-137622790D01*
X154756232Y-137598020D01*
X154333222Y-137011573D01*
X154327578Y-138142397D01*
X154326648Y-138327086D01*
X154325790Y-138490526D01*
X154324973Y-138634044D01*
X154324162Y-138758968D01*
X154323327Y-138866627D01*
X154322435Y-138958349D01*
X154321452Y-139035461D01*
X154320347Y-139099292D01*
X154319087Y-139151170D01*
X154317639Y-139192422D01*
X154315971Y-139224377D01*
X154314051Y-139248363D01*
X154311845Y-139265708D01*
X154309322Y-139277739D01*
X154306449Y-139285785D01*
X154303193Y-139291174D01*
X154299523Y-139295234D01*
X154299355Y-139295399D01*
X154266669Y-139316657D01*
X154229254Y-139325822D01*
X154203400Y-139322551D01*
X154182940Y-139310496D01*
X154161067Y-139293017D01*
X154135667Y-139269908D01*
X154135667Y-137978556D01*
X154135749Y-137756656D01*
X154135998Y-137556836D01*
X154136419Y-137378603D01*
X154137017Y-137221459D01*
X154137795Y-137084909D01*
X154138759Y-136968457D01*
X154139914Y-136871608D01*
X154141263Y-136793865D01*
X154142812Y-136734733D01*
X154144564Y-136693716D01*
X154146526Y-136670318D01*
X154147864Y-136664413D01*
X154171843Y-136639518D01*
X154207654Y-136622342D01*
X154245204Y-136616741D01*
X154263518Y-136620206D01*
G36*
X151955881Y-135083850D02*
X152006711Y-135107942D01*
X152052574Y-135142540D01*
X152065928Y-135156359D01*
X152098830Y-135209357D01*
X152110773Y-135267652D01*
X152101400Y-135326353D01*
X152093047Y-135340513D01*
X152072119Y-135371771D01*
X152039408Y-135419026D01*
X151995703Y-135481181D01*
X151941794Y-135557134D01*
X151878471Y-135645785D01*
X151806524Y-135746036D01*
X151726743Y-135856786D01*
X151639917Y-135976935D01*
X151546838Y-136105384D01*
X151448295Y-136241033D01*
X151345077Y-136382781D01*
X151237976Y-136529530D01*
X151191807Y-136592688D01*
X150296882Y-137816366D01*
X151191116Y-139038994D01*
X151299633Y-139187534D01*
X151404630Y-139331589D01*
X151505313Y-139470056D01*
X151600889Y-139601829D01*
X151690565Y-139725803D01*
X151773548Y-139840874D01*
X151849044Y-139945936D01*
X151916260Y-140039886D01*
X151974403Y-140121618D01*
X152022680Y-140190028D01*
X152060298Y-140244010D01*
X152086463Y-140282461D01*
X152100382Y-140304275D01*
X152102370Y-140308164D01*
X152112652Y-140344955D01*
X152111675Y-140376881D01*
X152105888Y-140399769D01*
X152077939Y-140458802D01*
X152035257Y-140505652D01*
X151982058Y-140536971D01*
X151922558Y-140549409D01*
X151917400Y-140549488D01*
X151904024Y-140549620D01*
X151891739Y-140549409D01*
X151879814Y-140547951D01*
X151867516Y-140544340D01*
X151854115Y-140537671D01*
X151838880Y-140527037D01*
X151821079Y-140511532D01*
X151799982Y-140490252D01*
X151774857Y-140462290D01*
X151744972Y-140426741D01*
X151709597Y-140382698D01*
X151668000Y-140329257D01*
X151619451Y-140265510D01*
X151563217Y-140190554D01*
X151498568Y-140103481D01*
X151424773Y-140003387D01*
X151341100Y-139889365D01*
X151246818Y-139760510D01*
X151141196Y-139615915D01*
X151023503Y-139454676D01*
X150928951Y-139325129D01*
X150822933Y-139179967D01*
X150720538Y-139039935D01*
X150622560Y-138906106D01*
X150529789Y-138779556D01*
X150443017Y-138661358D01*
X150363037Y-138552587D01*
X150290638Y-138454317D01*
X150226614Y-138367621D01*
X150171755Y-138293576D01*
X150126853Y-138233253D01*
X150092700Y-138187729D01*
X150070087Y-138158076D01*
X150059806Y-138145370D01*
X150059284Y-138144955D01*
X150051741Y-138153900D01*
X150031693Y-138180021D01*
X149999931Y-138222246D01*
X149957244Y-138279502D01*
X149904424Y-138350716D01*
X149842261Y-138434817D01*
X149771544Y-138530732D01*
X149693066Y-138637389D01*
X149607615Y-138753715D01*
X149515982Y-138878639D01*
X149418958Y-139011087D01*
X149317333Y-139149988D01*
X149211898Y-139294270D01*
X149186572Y-139328952D01*
X149056892Y-139506471D01*
X148939826Y-139666515D01*
X148834757Y-139809905D01*
X148741068Y-139937461D01*
X148658144Y-140050004D01*
X148585367Y-140148354D01*
X148522121Y-140233333D01*
X148467791Y-140305761D01*
X148421759Y-140366458D01*
X148383409Y-140416246D01*
X148352126Y-140455945D01*
X148327292Y-140486375D01*
X148308291Y-140508358D01*
X148294507Y-140522714D01*
X148285323Y-140530263D01*
X148283599Y-140531219D01*
X148224973Y-140547202D01*
X148163253Y-140543545D01*
X148116885Y-140526664D01*
X148065754Y-140488807D01*
X148030562Y-140439853D01*
X148013411Y-140384173D01*
X148016404Y-140326140D01*
X148017812Y-140320664D01*
X148026251Y-140305180D01*
X148047751Y-140272028D01*
X148081961Y-140221700D01*
X148128530Y-140154690D01*
X148187107Y-140071490D01*
X148257339Y-139972594D01*
X148338875Y-139858495D01*
X148431363Y-139729685D01*
X148534453Y-139586659D01*
X148647793Y-139429908D01*
X148771031Y-139259927D01*
X148903815Y-139077208D01*
X148925438Y-139047489D01*
X149821511Y-137816160D01*
X148932478Y-136594846D01*
X148824599Y-136446594D01*
X148720255Y-136303096D01*
X148620233Y-136165440D01*
X148525321Y-136034714D01*
X148436303Y-135912003D01*
X148353968Y-135798395D01*
X148279102Y-135694977D01*
X148212491Y-135602837D01*
X148154923Y-135523060D01*
X148107183Y-135456734D01*
X148070060Y-135404947D01*
X148044339Y-135368785D01*
X148030807Y-135349334D01*
X148028965Y-135346441D01*
X148016359Y-135303789D01*
X148015378Y-135252110D01*
X148025453Y-135201377D01*
X148038948Y-135171495D01*
X148073371Y-135133509D01*
X148121574Y-135102501D01*
X148175439Y-135082378D01*
X148226849Y-135077048D01*
X148233682Y-135077743D01*
X148271580Y-135087218D01*
X148304939Y-135102512D01*
X148309622Y-135105695D01*
X148319769Y-135117362D01*
X148342357Y-135146204D01*
X148376572Y-135191117D01*
X148421599Y-135251000D01*
X148476624Y-135324749D01*
X148540832Y-135411263D01*
X148613408Y-135509438D01*
X148693537Y-135618173D01*
X148780405Y-135736366D01*
X148873197Y-135862912D01*
X148971098Y-135996711D01*
X149073295Y-136136660D01*
X149178971Y-136281657D01*
X149198818Y-136308920D01*
X150058814Y-137490463D01*
X150283435Y-137182709D01*
X150324265Y-137126719D01*
X150376937Y-137054411D01*
X150440030Y-136967739D01*
X150512123Y-136868657D01*
X150591796Y-136759119D01*
X150677627Y-136641080D01*
X150768196Y-136516492D01*
X150862081Y-136387311D01*
X150957863Y-136255490D01*
X151054119Y-136122982D01*
X151126991Y-136022644D01*
X151216933Y-135898851D01*
X151303451Y-135779897D01*
X151385578Y-135667101D01*
X151462351Y-135561783D01*
X151532802Y-135465264D01*
X151595968Y-135378863D01*
X151650882Y-135303901D01*
X151696580Y-135241698D01*
X151732097Y-135193574D01*
X151756466Y-135160849D01*
X151768723Y-135144844D01*
X151769573Y-135143834D01*
X151804460Y-135114354D01*
X151848158Y-135090270D01*
X151891150Y-135076327D01*
X151908483Y-135074625D01*
X151955881Y-135083850D01*
X151955881Y-135083850D01*
G37*
X151955881Y-135083850D02*
X152006711Y-135107942D01*
X152052574Y-135142540D01*
X152065928Y-135156359D01*
X152098830Y-135209357D01*
X152110773Y-135267652D01*
X152101400Y-135326353D01*
X152093047Y-135340513D01*
X152072119Y-135371771D01*
X152039408Y-135419026D01*
X151995703Y-135481181D01*
X151941794Y-135557134D01*
X151878471Y-135645785D01*
X151806524Y-135746036D01*
X151726743Y-135856786D01*
X151639917Y-135976935D01*
X151546838Y-136105384D01*
X151448295Y-136241033D01*
X151345077Y-136382781D01*
X151237976Y-136529530D01*
X151191807Y-136592688D01*
X150296882Y-137816366D01*
X151191116Y-139038994D01*
X151299633Y-139187534D01*
X151404630Y-139331589D01*
X151505313Y-139470056D01*
X151600889Y-139601829D01*
X151690565Y-139725803D01*
X151773548Y-139840874D01*
X151849044Y-139945936D01*
X151916260Y-140039886D01*
X151974403Y-140121618D01*
X152022680Y-140190028D01*
X152060298Y-140244010D01*
X152086463Y-140282461D01*
X152100382Y-140304275D01*
X152102370Y-140308164D01*
X152112652Y-140344955D01*
X152111675Y-140376881D01*
X152105888Y-140399769D01*
X152077939Y-140458802D01*
X152035257Y-140505652D01*
X151982058Y-140536971D01*
X151922558Y-140549409D01*
X151917400Y-140549488D01*
X151904024Y-140549620D01*
X151891739Y-140549409D01*
X151879814Y-140547951D01*
X151867516Y-140544340D01*
X151854115Y-140537671D01*
X151838880Y-140527037D01*
X151821079Y-140511532D01*
X151799982Y-140490252D01*
X151774857Y-140462290D01*
X151744972Y-140426741D01*
X151709597Y-140382698D01*
X151668000Y-140329257D01*
X151619451Y-140265510D01*
X151563217Y-140190554D01*
X151498568Y-140103481D01*
X151424773Y-140003387D01*
X151341100Y-139889365D01*
X151246818Y-139760510D01*
X151141196Y-139615915D01*
X151023503Y-139454676D01*
X150928951Y-139325129D01*
X150822933Y-139179967D01*
X150720538Y-139039935D01*
X150622560Y-138906106D01*
X150529789Y-138779556D01*
X150443017Y-138661358D01*
X150363037Y-138552587D01*
X150290638Y-138454317D01*
X150226614Y-138367621D01*
X150171755Y-138293576D01*
X150126853Y-138233253D01*
X150092700Y-138187729D01*
X150070087Y-138158076D01*
X150059806Y-138145370D01*
X150059284Y-138144955D01*
X150051741Y-138153900D01*
X150031693Y-138180021D01*
X149999931Y-138222246D01*
X149957244Y-138279502D01*
X149904424Y-138350716D01*
X149842261Y-138434817D01*
X149771544Y-138530732D01*
X149693066Y-138637389D01*
X149607615Y-138753715D01*
X149515982Y-138878639D01*
X149418958Y-139011087D01*
X149317333Y-139149988D01*
X149211898Y-139294270D01*
X149186572Y-139328952D01*
X149056892Y-139506471D01*
X148939826Y-139666515D01*
X148834757Y-139809905D01*
X148741068Y-139937461D01*
X148658144Y-140050004D01*
X148585367Y-140148354D01*
X148522121Y-140233333D01*
X148467791Y-140305761D01*
X148421759Y-140366458D01*
X148383409Y-140416246D01*
X148352126Y-140455945D01*
X148327292Y-140486375D01*
X148308291Y-140508358D01*
X148294507Y-140522714D01*
X148285323Y-140530263D01*
X148283599Y-140531219D01*
X148224973Y-140547202D01*
X148163253Y-140543545D01*
X148116885Y-140526664D01*
X148065754Y-140488807D01*
X148030562Y-140439853D01*
X148013411Y-140384173D01*
X148016404Y-140326140D01*
X148017812Y-140320664D01*
X148026251Y-140305180D01*
X148047751Y-140272028D01*
X148081961Y-140221700D01*
X148128530Y-140154690D01*
X148187107Y-140071490D01*
X148257339Y-139972594D01*
X148338875Y-139858495D01*
X148431363Y-139729685D01*
X148534453Y-139586659D01*
X148647793Y-139429908D01*
X148771031Y-139259927D01*
X148903815Y-139077208D01*
X148925438Y-139047489D01*
X149821511Y-137816160D01*
X148932478Y-136594846D01*
X148824599Y-136446594D01*
X148720255Y-136303096D01*
X148620233Y-136165440D01*
X148525321Y-136034714D01*
X148436303Y-135912003D01*
X148353968Y-135798395D01*
X148279102Y-135694977D01*
X148212491Y-135602837D01*
X148154923Y-135523060D01*
X148107183Y-135456734D01*
X148070060Y-135404947D01*
X148044339Y-135368785D01*
X148030807Y-135349334D01*
X148028965Y-135346441D01*
X148016359Y-135303789D01*
X148015378Y-135252110D01*
X148025453Y-135201377D01*
X148038948Y-135171495D01*
X148073371Y-135133509D01*
X148121574Y-135102501D01*
X148175439Y-135082378D01*
X148226849Y-135077048D01*
X148233682Y-135077743D01*
X148271580Y-135087218D01*
X148304939Y-135102512D01*
X148309622Y-135105695D01*
X148319769Y-135117362D01*
X148342357Y-135146204D01*
X148376572Y-135191117D01*
X148421599Y-135251000D01*
X148476624Y-135324749D01*
X148540832Y-135411263D01*
X148613408Y-135509438D01*
X148693537Y-135618173D01*
X148780405Y-135736366D01*
X148873197Y-135862912D01*
X148971098Y-135996711D01*
X149073295Y-136136660D01*
X149178971Y-136281657D01*
X149198818Y-136308920D01*
X150058814Y-137490463D01*
X150283435Y-137182709D01*
X150324265Y-137126719D01*
X150376937Y-137054411D01*
X150440030Y-136967739D01*
X150512123Y-136868657D01*
X150591796Y-136759119D01*
X150677627Y-136641080D01*
X150768196Y-136516492D01*
X150862081Y-136387311D01*
X150957863Y-136255490D01*
X151054119Y-136122982D01*
X151126991Y-136022644D01*
X151216933Y-135898851D01*
X151303451Y-135779897D01*
X151385578Y-135667101D01*
X151462351Y-135561783D01*
X151532802Y-135465264D01*
X151595968Y-135378863D01*
X151650882Y-135303901D01*
X151696580Y-135241698D01*
X151732097Y-135193574D01*
X151756466Y-135160849D01*
X151768723Y-135144844D01*
X151769573Y-135143834D01*
X151804460Y-135114354D01*
X151848158Y-135090270D01*
X151891150Y-135076327D01*
X151908483Y-135074625D01*
X151955881Y-135083850D01*
G36*
X144776995Y-135060161D02*
X144868341Y-135067895D01*
X144950437Y-135082680D01*
X145029748Y-135105937D01*
X145112739Y-135139084D01*
X145177933Y-135169642D01*
X145317166Y-135250190D01*
X145442500Y-135347839D01*
X145552602Y-135460964D01*
X145646142Y-135587939D01*
X145721788Y-135727140D01*
X145778208Y-135876942D01*
X145789032Y-135915400D01*
X145801509Y-135966038D01*
X145809984Y-136010609D01*
X145815190Y-136055925D01*
X145817858Y-136108799D01*
X145818719Y-136176043D01*
X145818739Y-136191977D01*
X145818139Y-136263245D01*
X145815863Y-136318690D01*
X145811198Y-136365045D01*
X145803431Y-136409045D01*
X145791848Y-136457424D01*
X145789802Y-136465234D01*
X145742560Y-136610511D01*
X145680310Y-136742237D01*
X145600747Y-136864357D01*
X145501567Y-136980814D01*
X145469781Y-137013129D01*
X145364193Y-137117436D01*
X145468446Y-137169795D01*
X145643831Y-137270128D01*
X145804333Y-137387136D01*
X145949308Y-137519972D01*
X146078110Y-137667787D01*
X146190094Y-137829734D01*
X146284615Y-138004965D01*
X146361028Y-138192632D01*
X146418688Y-138391888D01*
X146427201Y-138429735D01*
X146439372Y-138504737D01*
X146447914Y-138595793D01*
X146452764Y-138696663D01*
X146453863Y-138801108D01*
X146451150Y-138902886D01*
X146444562Y-138995759D01*
X146434040Y-139073487D01*
X146433519Y-139076288D01*
X146385872Y-139275137D01*
X146320156Y-139460844D01*
X146235704Y-139634649D01*
X146131850Y-139797794D01*
X146007926Y-139951520D01*
X145907846Y-140055189D01*
X145757058Y-140185810D01*
X145595281Y-140296827D01*
X145422163Y-140388423D01*
X145237354Y-140460782D01*
X145040504Y-140514088D01*
X145025533Y-140517263D01*
X144954493Y-140528653D01*
X144867780Y-140537268D01*
X144771625Y-140542952D01*
X144672258Y-140545552D01*
X144575910Y-140544914D01*
X144488811Y-140540884D01*
X144417193Y-140533307D01*
X144411729Y-140532448D01*
X144213080Y-140489153D01*
X144023985Y-140426049D01*
X143845530Y-140344181D01*
X143678806Y-140244596D01*
X143524899Y-140128340D01*
X143384898Y-139996461D01*
X143259892Y-139850004D01*
X143150969Y-139690017D01*
X143059217Y-139517544D01*
X142985724Y-139333634D01*
X142931578Y-139139333D01*
X142923590Y-139101437D01*
X142909240Y-139007017D01*
X142900297Y-138898619D01*
X142896752Y-138782927D01*
X142897894Y-138710922D01*
X143279264Y-138710922D01*
X143279615Y-138822288D01*
X143296440Y-139001355D01*
X143333240Y-139170085D01*
X143390356Y-139329278D01*
X143468130Y-139479734D01*
X143566904Y-139622255D01*
X143672483Y-139742795D01*
X143803905Y-139863214D01*
X143946198Y-139963903D01*
X144099680Y-140045036D01*
X144264671Y-140106785D01*
X144410289Y-140143381D01*
X144489945Y-140155122D01*
X144583872Y-140162241D01*
X144684228Y-140164654D01*
X144783164Y-140162277D01*
X144872838Y-140155024D01*
X144915917Y-140148831D01*
X145088022Y-140107852D01*
X145250154Y-140047454D01*
X145401174Y-139968994D01*
X145539944Y-139873828D01*
X145665327Y-139763315D01*
X145776185Y-139638812D01*
X145871379Y-139501676D01*
X145949771Y-139353265D01*
X146010223Y-139194936D01*
X146051598Y-139028047D01*
X146072757Y-138853954D01*
X146075400Y-138765844D01*
X146064598Y-138586422D01*
X146032404Y-138413966D01*
X145979137Y-138249242D01*
X145905115Y-138093018D01*
X145810656Y-137946059D01*
X145696080Y-137809133D01*
X145664787Y-137777015D01*
X145528921Y-137656214D01*
X145384786Y-137556420D01*
X145232315Y-137477606D01*
X145071443Y-137419745D01*
X144902105Y-137382810D01*
X144724235Y-137366772D01*
X144675067Y-137366022D01*
X144496494Y-137376878D01*
X144324548Y-137409204D01*
X144160104Y-137462640D01*
X144004036Y-137536822D01*
X143857218Y-137631388D01*
X143720525Y-137745977D01*
X143693318Y-137772422D01*
X143571787Y-137908182D01*
X143471227Y-138052302D01*
X143391666Y-138204709D01*
X143333132Y-138365330D01*
X143295656Y-138534092D01*
X143279264Y-138710922D01*
X142897894Y-138710922D01*
X142898597Y-138666624D01*
X142905823Y-138556394D01*
X142918420Y-138458920D01*
X142924493Y-138427177D01*
X142977319Y-138230069D01*
X143049323Y-138042674D01*
X143139537Y-137866280D01*
X143246988Y-137702176D01*
X143370705Y-137551650D01*
X143509719Y-137415990D01*
X143663058Y-137296486D01*
X143829752Y-137194426D01*
X143868479Y-137174260D01*
X143981424Y-137117253D01*
X143879342Y-137013037D01*
X143835297Y-136966235D01*
X143792568Y-136917622D01*
X143756266Y-136873198D01*
X143732991Y-136841263D01*
X143653627Y-136700813D01*
X143594806Y-136554546D01*
X143556354Y-136404437D01*
X143538097Y-136252461D01*
X143538800Y-136191977D01*
X143925432Y-136191977D01*
X143925623Y-136255610D01*
X143927154Y-136302888D01*
X143930879Y-136340030D01*
X143937655Y-136373254D01*
X143948337Y-136408778D01*
X143959779Y-136441662D01*
X144014855Y-136563846D01*
X144087435Y-136672805D01*
X144176020Y-136767058D01*
X144279114Y-136845123D01*
X144395218Y-136905522D01*
X144449800Y-136926039D01*
X144568105Y-136954986D01*
X144687595Y-136962446D01*
X144810798Y-136948478D01*
X144866980Y-136935520D01*
X144989175Y-136891857D01*
X145100804Y-136829119D01*
X145200100Y-136749026D01*
X145285293Y-136653297D01*
X145354615Y-136543652D01*
X145406298Y-136421808D01*
X145411225Y-136406466D01*
X145430478Y-136318537D01*
X145438854Y-136219593D01*
X145436355Y-136118323D01*
X145422982Y-136023418D01*
X145411120Y-135977488D01*
X145379612Y-135889779D01*
X145342419Y-135815241D01*
X145295067Y-135746545D01*
X145233080Y-135676363D01*
X145217647Y-135660611D01*
X145122375Y-135576886D01*
X145022503Y-135513782D01*
X144914635Y-135469372D01*
X144849870Y-135452039D01*
X144760936Y-135439020D01*
X144663300Y-135436107D01*
X144565207Y-135442898D01*
X144474904Y-135458992D01*
X144429089Y-135472523D01*
X144309923Y-135525980D01*
X144203110Y-135597037D01*
X144110503Y-135683832D01*
X144033957Y-135784503D01*
X143975327Y-135897187D01*
X143956758Y-135946845D01*
X143943748Y-135988273D01*
X143934934Y-136024562D01*
X143929505Y-136062069D01*
X143926649Y-136107149D01*
X143925552Y-136166157D01*
X143925432Y-136191977D01*
X143538800Y-136191977D01*
X143539864Y-136100593D01*
X143561480Y-135950808D01*
X143602772Y-135805083D01*
X143663567Y-135665393D01*
X143743693Y-135533713D01*
X143842974Y-135412018D01*
X143859868Y-135394379D01*
X143964116Y-135299655D01*
X144077438Y-135220705D01*
X144191832Y-135159673D01*
X144276960Y-135122059D01*
X144353882Y-135094583D01*
X144429151Y-135075851D01*
X144509321Y-135064470D01*
X144600946Y-135059047D01*
X144669933Y-135058057D01*
X144776995Y-135060161D01*
X144776995Y-135060161D01*
G37*
X144776995Y-135060161D02*
X144868341Y-135067895D01*
X144950437Y-135082680D01*
X145029748Y-135105937D01*
X145112739Y-135139084D01*
X145177933Y-135169642D01*
X145317166Y-135250190D01*
X145442500Y-135347839D01*
X145552602Y-135460964D01*
X145646142Y-135587939D01*
X145721788Y-135727140D01*
X145778208Y-135876942D01*
X145789032Y-135915400D01*
X145801509Y-135966038D01*
X145809984Y-136010609D01*
X145815190Y-136055925D01*
X145817858Y-136108799D01*
X145818719Y-136176043D01*
X145818739Y-136191977D01*
X145818139Y-136263245D01*
X145815863Y-136318690D01*
X145811198Y-136365045D01*
X145803431Y-136409045D01*
X145791848Y-136457424D01*
X145789802Y-136465234D01*
X145742560Y-136610511D01*
X145680310Y-136742237D01*
X145600747Y-136864357D01*
X145501567Y-136980814D01*
X145469781Y-137013129D01*
X145364193Y-137117436D01*
X145468446Y-137169795D01*
X145643831Y-137270128D01*
X145804333Y-137387136D01*
X145949308Y-137519972D01*
X146078110Y-137667787D01*
X146190094Y-137829734D01*
X146284615Y-138004965D01*
X146361028Y-138192632D01*
X146418688Y-138391888D01*
X146427201Y-138429735D01*
X146439372Y-138504737D01*
X146447914Y-138595793D01*
X146452764Y-138696663D01*
X146453863Y-138801108D01*
X146451150Y-138902886D01*
X146444562Y-138995759D01*
X146434040Y-139073487D01*
X146433519Y-139076288D01*
X146385872Y-139275137D01*
X146320156Y-139460844D01*
X146235704Y-139634649D01*
X146131850Y-139797794D01*
X146007926Y-139951520D01*
X145907846Y-140055189D01*
X145757058Y-140185810D01*
X145595281Y-140296827D01*
X145422163Y-140388423D01*
X145237354Y-140460782D01*
X145040504Y-140514088D01*
X145025533Y-140517263D01*
X144954493Y-140528653D01*
X144867780Y-140537268D01*
X144771625Y-140542952D01*
X144672258Y-140545552D01*
X144575910Y-140544914D01*
X144488811Y-140540884D01*
X144417193Y-140533307D01*
X144411729Y-140532448D01*
X144213080Y-140489153D01*
X144023985Y-140426049D01*
X143845530Y-140344181D01*
X143678806Y-140244596D01*
X143524899Y-140128340D01*
X143384898Y-139996461D01*
X143259892Y-139850004D01*
X143150969Y-139690017D01*
X143059217Y-139517544D01*
X142985724Y-139333634D01*
X142931578Y-139139333D01*
X142923590Y-139101437D01*
X142909240Y-139007017D01*
X142900297Y-138898619D01*
X142896752Y-138782927D01*
X142897894Y-138710922D01*
X143279264Y-138710922D01*
X143279615Y-138822288D01*
X143296440Y-139001355D01*
X143333240Y-139170085D01*
X143390356Y-139329278D01*
X143468130Y-139479734D01*
X143566904Y-139622255D01*
X143672483Y-139742795D01*
X143803905Y-139863214D01*
X143946198Y-139963903D01*
X144099680Y-140045036D01*
X144264671Y-140106785D01*
X144410289Y-140143381D01*
X144489945Y-140155122D01*
X144583872Y-140162241D01*
X144684228Y-140164654D01*
X144783164Y-140162277D01*
X144872838Y-140155024D01*
X144915917Y-140148831D01*
X145088022Y-140107852D01*
X145250154Y-140047454D01*
X145401174Y-139968994D01*
X145539944Y-139873828D01*
X145665327Y-139763315D01*
X145776185Y-139638812D01*
X145871379Y-139501676D01*
X145949771Y-139353265D01*
X146010223Y-139194936D01*
X146051598Y-139028047D01*
X146072757Y-138853954D01*
X146075400Y-138765844D01*
X146064598Y-138586422D01*
X146032404Y-138413966D01*
X145979137Y-138249242D01*
X145905115Y-138093018D01*
X145810656Y-137946059D01*
X145696080Y-137809133D01*
X145664787Y-137777015D01*
X145528921Y-137656214D01*
X145384786Y-137556420D01*
X145232315Y-137477606D01*
X145071443Y-137419745D01*
X144902105Y-137382810D01*
X144724235Y-137366772D01*
X144675067Y-137366022D01*
X144496494Y-137376878D01*
X144324548Y-137409204D01*
X144160104Y-137462640D01*
X144004036Y-137536822D01*
X143857218Y-137631388D01*
X143720525Y-137745977D01*
X143693318Y-137772422D01*
X143571787Y-137908182D01*
X143471227Y-138052302D01*
X143391666Y-138204709D01*
X143333132Y-138365330D01*
X143295656Y-138534092D01*
X143279264Y-138710922D01*
X142897894Y-138710922D01*
X142898597Y-138666624D01*
X142905823Y-138556394D01*
X142918420Y-138458920D01*
X142924493Y-138427177D01*
X142977319Y-138230069D01*
X143049323Y-138042674D01*
X143139537Y-137866280D01*
X143246988Y-137702176D01*
X143370705Y-137551650D01*
X143509719Y-137415990D01*
X143663058Y-137296486D01*
X143829752Y-137194426D01*
X143868479Y-137174260D01*
X143981424Y-137117253D01*
X143879342Y-137013037D01*
X143835297Y-136966235D01*
X143792568Y-136917622D01*
X143756266Y-136873198D01*
X143732991Y-136841263D01*
X143653627Y-136700813D01*
X143594806Y-136554546D01*
X143556354Y-136404437D01*
X143538097Y-136252461D01*
X143538800Y-136191977D01*
X143925432Y-136191977D01*
X143925623Y-136255610D01*
X143927154Y-136302888D01*
X143930879Y-136340030D01*
X143937655Y-136373254D01*
X143948337Y-136408778D01*
X143959779Y-136441662D01*
X144014855Y-136563846D01*
X144087435Y-136672805D01*
X144176020Y-136767058D01*
X144279114Y-136845123D01*
X144395218Y-136905522D01*
X144449800Y-136926039D01*
X144568105Y-136954986D01*
X144687595Y-136962446D01*
X144810798Y-136948478D01*
X144866980Y-136935520D01*
X144989175Y-136891857D01*
X145100804Y-136829119D01*
X145200100Y-136749026D01*
X145285293Y-136653297D01*
X145354615Y-136543652D01*
X145406298Y-136421808D01*
X145411225Y-136406466D01*
X145430478Y-136318537D01*
X145438854Y-136219593D01*
X145436355Y-136118323D01*
X145422982Y-136023418D01*
X145411120Y-135977488D01*
X145379612Y-135889779D01*
X145342419Y-135815241D01*
X145295067Y-135746545D01*
X145233080Y-135676363D01*
X145217647Y-135660611D01*
X145122375Y-135576886D01*
X145022503Y-135513782D01*
X144914635Y-135469372D01*
X144849870Y-135452039D01*
X144760936Y-135439020D01*
X144663300Y-135436107D01*
X144565207Y-135442898D01*
X144474904Y-135458992D01*
X144429089Y-135472523D01*
X144309923Y-135525980D01*
X144203110Y-135597037D01*
X144110503Y-135683832D01*
X144033957Y-135784503D01*
X143975327Y-135897187D01*
X143956758Y-135946845D01*
X143943748Y-135988273D01*
X143934934Y-136024562D01*
X143929505Y-136062069D01*
X143926649Y-136107149D01*
X143925552Y-136166157D01*
X143925432Y-136191977D01*
X143538800Y-136191977D01*
X143539864Y-136100593D01*
X143561480Y-135950808D01*
X143602772Y-135805083D01*
X143663567Y-135665393D01*
X143743693Y-135533713D01*
X143842974Y-135412018D01*
X143859868Y-135394379D01*
X143964116Y-135299655D01*
X144077438Y-135220705D01*
X144191832Y-135159673D01*
X144276960Y-135122059D01*
X144353882Y-135094583D01*
X144429151Y-135075851D01*
X144509321Y-135064470D01*
X144600946Y-135059047D01*
X144669933Y-135058057D01*
X144776995Y-135060161D01*
G36*
X138455532Y-135050443D02*
X138568707Y-135051024D01*
X138679860Y-135052082D01*
X138786531Y-135053617D01*
X138886262Y-135055623D01*
X138976593Y-135058099D01*
X139055064Y-135061042D01*
X139119217Y-135064448D01*
X139166591Y-135068314D01*
X139171574Y-135068872D01*
X139415825Y-135108660D01*
X139653677Y-135170048D01*
X139884690Y-135252858D01*
X140108419Y-135356913D01*
X140324423Y-135482034D01*
X140498689Y-135602626D01*
X140569722Y-135659252D01*
X140649335Y-135728817D01*
X140733245Y-135807073D01*
X140817167Y-135889776D01*
X140896820Y-135972677D01*
X140967920Y-136051531D01*
X141026183Y-136122090D01*
X141037188Y-136136526D01*
X141181478Y-136347354D01*
X141304728Y-136566180D01*
X141407158Y-136793529D01*
X141488987Y-137029927D01*
X141550435Y-137275899D01*
X141578440Y-137433755D01*
X141586657Y-137505070D01*
X141592786Y-137592789D01*
X141596786Y-137691303D01*
X141598612Y-137794999D01*
X141598220Y-137898266D01*
X141595568Y-137995492D01*
X141590612Y-138081067D01*
X141583942Y-138144955D01*
X141537942Y-138398789D01*
X141472373Y-138641385D01*
X141387164Y-138872884D01*
X141282247Y-139093426D01*
X141157552Y-139303152D01*
X141013011Y-139502202D01*
X140848553Y-139690718D01*
X140797959Y-139742603D01*
X140613647Y-139911444D01*
X140416934Y-140061737D01*
X140208885Y-140192962D01*
X139990568Y-140304603D01*
X139763050Y-140396140D01*
X139527398Y-140467056D01*
X139284679Y-140516833D01*
X139171574Y-140532416D01*
X139132010Y-140536432D01*
X139086306Y-140539813D01*
X139032451Y-140542604D01*
X138968432Y-140544849D01*
X138892236Y-140546593D01*
X138801851Y-140547881D01*
X138695264Y-140548755D01*
X138570464Y-140549262D01*
X138425437Y-140549444D01*
X138399025Y-140549446D01*
X138263797Y-140549403D01*
X138149304Y-140549252D01*
X138053704Y-140548937D01*
X137975154Y-140548399D01*
X137911811Y-140547578D01*
X137861833Y-140546417D01*
X137823378Y-140544857D01*
X137794602Y-140542839D01*
X137773662Y-140540306D01*
X137758718Y-140537199D01*
X137747925Y-140533458D01*
X137739442Y-140529026D01*
X137738555Y-140528485D01*
X137708403Y-140506730D01*
X137683860Y-140484119D01*
X137678215Y-140478073D01*
X137672998Y-140472554D01*
X137668191Y-140466692D01*
X137663778Y-140459615D01*
X137659740Y-140450452D01*
X137656062Y-140438332D01*
X137652727Y-140422382D01*
X137649717Y-140401733D01*
X137647016Y-140375511D01*
X137644606Y-140342847D01*
X137642472Y-140302869D01*
X137640595Y-140254705D01*
X137638959Y-140197484D01*
X137638291Y-140165666D01*
X138026422Y-140165666D01*
X138452578Y-140165639D01*
X138556268Y-140165312D01*
X138659499Y-140164394D01*
X138758487Y-140162961D01*
X138849454Y-140161090D01*
X138928616Y-140158855D01*
X138992194Y-140156334D01*
X139031133Y-140154024D01*
X139257599Y-140125866D01*
X139477372Y-140076918D01*
X139689307Y-140008134D01*
X139892260Y-139920468D01*
X140085088Y-139814875D01*
X140266648Y-139692307D01*
X140435795Y-139553721D01*
X140591387Y-139400069D01*
X140732278Y-139232305D01*
X140857326Y-139051384D01*
X140965388Y-138858261D01*
X141055318Y-138653888D01*
X141125974Y-138439220D01*
X141137201Y-138397052D01*
X141165557Y-138276769D01*
X141186063Y-138165151D01*
X141199445Y-138055357D01*
X141206430Y-137940547D01*
X141207743Y-137813878D01*
X141206506Y-137744200D01*
X141202701Y-137635342D01*
X141196669Y-137542314D01*
X141187485Y-137458403D01*
X141174226Y-137376899D01*
X141155970Y-137291090D01*
X141131794Y-137194265D01*
X141129832Y-137186813D01*
X141062103Y-136973658D01*
X140974368Y-136769466D01*
X140867811Y-136575403D01*
X140743614Y-136392636D01*
X140602961Y-136222330D01*
X140447035Y-136065654D01*
X140277020Y-135923772D01*
X140094099Y-135797853D01*
X139899455Y-135689063D01*
X139694271Y-135598568D01*
X139479732Y-135527535D01*
X139434608Y-135515458D01*
X139371622Y-135499661D01*
X139314043Y-135486333D01*
X139259164Y-135475240D01*
X139204279Y-135466149D01*
X139146685Y-135458825D01*
X139083675Y-135453036D01*
X139012544Y-135448547D01*
X138930587Y-135445124D01*
X138835099Y-135442535D01*
X138723374Y-135440544D01*
X138592708Y-135438918D01*
X138542889Y-135438401D01*
X138026422Y-135433226D01*
X138026422Y-140165666D01*
X137638291Y-140165666D01*
X137637548Y-140130335D01*
X137636343Y-140052386D01*
X137635329Y-139962766D01*
X137634488Y-139860604D01*
X137633804Y-139745029D01*
X137633259Y-139615168D01*
X137632837Y-139470151D01*
X137632520Y-139309107D01*
X137632293Y-139131164D01*
X137632137Y-138935451D01*
X137632036Y-138721095D01*
X137631973Y-138487227D01*
X137631931Y-138232975D01*
X137631893Y-137957467D01*
X137631869Y-137806288D01*
X137631863Y-137478438D01*
X137631957Y-137173057D01*
X137632153Y-136890040D01*
X137632451Y-136629278D01*
X137632851Y-136390664D01*
X137633354Y-136174092D01*
X137633961Y-135979454D01*
X137634671Y-135806642D01*
X137635486Y-135655550D01*
X137636405Y-135526070D01*
X137637430Y-135418094D01*
X137638560Y-135331516D01*
X137639796Y-135266229D01*
X137641139Y-135222124D01*
X137642589Y-135199095D01*
X137643097Y-135196083D01*
X137666582Y-135144511D01*
X137703668Y-135099566D01*
X137747903Y-135068897D01*
X137751777Y-135067198D01*
X137772475Y-135063347D01*
X137813287Y-135060000D01*
X137871751Y-135057154D01*
X137945410Y-135054806D01*
X138031803Y-135052954D01*
X138128471Y-135051596D01*
X138232955Y-135050726D01*
X138342795Y-135050342D01*
X138455532Y-135050443D01*
X138455532Y-135050443D01*
G37*
X138455532Y-135050443D02*
X138568707Y-135051024D01*
X138679860Y-135052082D01*
X138786531Y-135053617D01*
X138886262Y-135055623D01*
X138976593Y-135058099D01*
X139055064Y-135061042D01*
X139119217Y-135064448D01*
X139166591Y-135068314D01*
X139171574Y-135068872D01*
X139415825Y-135108660D01*
X139653677Y-135170048D01*
X139884690Y-135252858D01*
X140108419Y-135356913D01*
X140324423Y-135482034D01*
X140498689Y-135602626D01*
X140569722Y-135659252D01*
X140649335Y-135728817D01*
X140733245Y-135807073D01*
X140817167Y-135889776D01*
X140896820Y-135972677D01*
X140967920Y-136051531D01*
X141026183Y-136122090D01*
X141037188Y-136136526D01*
X141181478Y-136347354D01*
X141304728Y-136566180D01*
X141407158Y-136793529D01*
X141488987Y-137029927D01*
X141550435Y-137275899D01*
X141578440Y-137433755D01*
X141586657Y-137505070D01*
X141592786Y-137592789D01*
X141596786Y-137691303D01*
X141598612Y-137794999D01*
X141598220Y-137898266D01*
X141595568Y-137995492D01*
X141590612Y-138081067D01*
X141583942Y-138144955D01*
X141537942Y-138398789D01*
X141472373Y-138641385D01*
X141387164Y-138872884D01*
X141282247Y-139093426D01*
X141157552Y-139303152D01*
X141013011Y-139502202D01*
X140848553Y-139690718D01*
X140797959Y-139742603D01*
X140613647Y-139911444D01*
X140416934Y-140061737D01*
X140208885Y-140192962D01*
X139990568Y-140304603D01*
X139763050Y-140396140D01*
X139527398Y-140467056D01*
X139284679Y-140516833D01*
X139171574Y-140532416D01*
X139132010Y-140536432D01*
X139086306Y-140539813D01*
X139032451Y-140542604D01*
X138968432Y-140544849D01*
X138892236Y-140546593D01*
X138801851Y-140547881D01*
X138695264Y-140548755D01*
X138570464Y-140549262D01*
X138425437Y-140549444D01*
X138399025Y-140549446D01*
X138263797Y-140549403D01*
X138149304Y-140549252D01*
X138053704Y-140548937D01*
X137975154Y-140548399D01*
X137911811Y-140547578D01*
X137861833Y-140546417D01*
X137823378Y-140544857D01*
X137794602Y-140542839D01*
X137773662Y-140540306D01*
X137758718Y-140537199D01*
X137747925Y-140533458D01*
X137739442Y-140529026D01*
X137738555Y-140528485D01*
X137708403Y-140506730D01*
X137683860Y-140484119D01*
X137678215Y-140478073D01*
X137672998Y-140472554D01*
X137668191Y-140466692D01*
X137663778Y-140459615D01*
X137659740Y-140450452D01*
X137656062Y-140438332D01*
X137652727Y-140422382D01*
X137649717Y-140401733D01*
X137647016Y-140375511D01*
X137644606Y-140342847D01*
X137642472Y-140302869D01*
X137640595Y-140254705D01*
X137638959Y-140197484D01*
X137638291Y-140165666D01*
X138026422Y-140165666D01*
X138452578Y-140165639D01*
X138556268Y-140165312D01*
X138659499Y-140164394D01*
X138758487Y-140162961D01*
X138849454Y-140161090D01*
X138928616Y-140158855D01*
X138992194Y-140156334D01*
X139031133Y-140154024D01*
X139257599Y-140125866D01*
X139477372Y-140076918D01*
X139689307Y-140008134D01*
X139892260Y-139920468D01*
X140085088Y-139814875D01*
X140266648Y-139692307D01*
X140435795Y-139553721D01*
X140591387Y-139400069D01*
X140732278Y-139232305D01*
X140857326Y-139051384D01*
X140965388Y-138858261D01*
X141055318Y-138653888D01*
X141125974Y-138439220D01*
X141137201Y-138397052D01*
X141165557Y-138276769D01*
X141186063Y-138165151D01*
X141199445Y-138055357D01*
X141206430Y-137940547D01*
X141207743Y-137813878D01*
X141206506Y-137744200D01*
X141202701Y-137635342D01*
X141196669Y-137542314D01*
X141187485Y-137458403D01*
X141174226Y-137376899D01*
X141155970Y-137291090D01*
X141131794Y-137194265D01*
X141129832Y-137186813D01*
X141062103Y-136973658D01*
X140974368Y-136769466D01*
X140867811Y-136575403D01*
X140743614Y-136392636D01*
X140602961Y-136222330D01*
X140447035Y-136065654D01*
X140277020Y-135923772D01*
X140094099Y-135797853D01*
X139899455Y-135689063D01*
X139694271Y-135598568D01*
X139479732Y-135527535D01*
X139434608Y-135515458D01*
X139371622Y-135499661D01*
X139314043Y-135486333D01*
X139259164Y-135475240D01*
X139204279Y-135466149D01*
X139146685Y-135458825D01*
X139083675Y-135453036D01*
X139012544Y-135448547D01*
X138930587Y-135445124D01*
X138835099Y-135442535D01*
X138723374Y-135440544D01*
X138592708Y-135438918D01*
X138542889Y-135438401D01*
X138026422Y-135433226D01*
X138026422Y-140165666D01*
X137638291Y-140165666D01*
X137637548Y-140130335D01*
X137636343Y-140052386D01*
X137635329Y-139962766D01*
X137634488Y-139860604D01*
X137633804Y-139745029D01*
X137633259Y-139615168D01*
X137632837Y-139470151D01*
X137632520Y-139309107D01*
X137632293Y-139131164D01*
X137632137Y-138935451D01*
X137632036Y-138721095D01*
X137631973Y-138487227D01*
X137631931Y-138232975D01*
X137631893Y-137957467D01*
X137631869Y-137806288D01*
X137631863Y-137478438D01*
X137631957Y-137173057D01*
X137632153Y-136890040D01*
X137632451Y-136629278D01*
X137632851Y-136390664D01*
X137633354Y-136174092D01*
X137633961Y-135979454D01*
X137634671Y-135806642D01*
X137635486Y-135655550D01*
X137636405Y-135526070D01*
X137637430Y-135418094D01*
X137638560Y-135331516D01*
X137639796Y-135266229D01*
X137641139Y-135222124D01*
X137642589Y-135199095D01*
X137643097Y-135196083D01*
X137666582Y-135144511D01*
X137703668Y-135099566D01*
X137747903Y-135068897D01*
X137751777Y-135067198D01*
X137772475Y-135063347D01*
X137813287Y-135060000D01*
X137871751Y-135057154D01*
X137945410Y-135054806D01*
X138031803Y-135052954D01*
X138128471Y-135051596D01*
X138232955Y-135050726D01*
X138342795Y-135050342D01*
X138455532Y-135050443D01*
G36*
X134252504Y-135053864D02*
X134362090Y-135054938D01*
X134449895Y-135056585D01*
X134516118Y-135058806D01*
X134560956Y-135061605D01*
X134575370Y-135063215D01*
X134745928Y-135098584D01*
X134908751Y-135154314D01*
X135062170Y-135229227D01*
X135204513Y-135322142D01*
X135334110Y-135431879D01*
X135449291Y-135557258D01*
X135548384Y-135697100D01*
X135598704Y-135786063D01*
X135670566Y-135948389D01*
X135720879Y-136114402D01*
X135749608Y-136282566D01*
X135756717Y-136451348D01*
X135742171Y-136619212D01*
X135705934Y-136784623D01*
X135647970Y-136946047D01*
X135626676Y-136992764D01*
X135577267Y-137088730D01*
X135525352Y-137173332D01*
X135466212Y-137253235D01*
X135395128Y-137335103D01*
X135352394Y-137380133D01*
X135312611Y-137422099D01*
X135280667Y-137457785D01*
X135258865Y-137484449D01*
X135249510Y-137499351D01*
X135250390Y-137501543D01*
X135266777Y-137506004D01*
X135298618Y-137518019D01*
X135340900Y-137535611D01*
X135376611Y-137551349D01*
X135534924Y-137634745D01*
X135683634Y-137736943D01*
X135820784Y-137855749D01*
X135944416Y-137988970D01*
X136052573Y-138134413D01*
X136143298Y-138289886D01*
X136214634Y-138453194D01*
X136235158Y-138513374D01*
X136272746Y-138661320D01*
X136296259Y-138819019D01*
X136305245Y-138979618D01*
X136299252Y-139136268D01*
X136283894Y-139251266D01*
X136239870Y-139432452D01*
X136175934Y-139605037D01*
X136093348Y-139767615D01*
X135993374Y-139918779D01*
X135877271Y-140057120D01*
X135746302Y-140181233D01*
X135601729Y-140289708D01*
X135444812Y-140381140D01*
X135276813Y-140454121D01*
X135176314Y-140487001D01*
X135138008Y-140497965D01*
X135102567Y-140507563D01*
X135068265Y-140515886D01*
X135033375Y-140523026D01*
X134996170Y-140529073D01*
X134954923Y-140534118D01*
X134907907Y-140538252D01*
X134853396Y-140541565D01*
X134789661Y-140544149D01*
X134714977Y-140546095D01*
X134627617Y-140547492D01*
X134525853Y-140548433D01*
X134407958Y-140549008D01*
X134272207Y-140549308D01*
X134116871Y-140549423D01*
X133989491Y-140549443D01*
X133107805Y-140549488D01*
X133069716Y-140523820D01*
X133036838Y-140496056D01*
X133007948Y-140462932D01*
X133005957Y-140460061D01*
X132980289Y-140421972D01*
X132980289Y-140165666D01*
X133364111Y-140165666D01*
X134066844Y-140165634D01*
X134228459Y-140165407D01*
X134374878Y-140164752D01*
X134505025Y-140163685D01*
X134617828Y-140162224D01*
X134712213Y-140160385D01*
X134787106Y-140158184D01*
X134841433Y-140155639D01*
X134871178Y-140153152D01*
X135032648Y-140122504D01*
X135184668Y-140071902D01*
X135326051Y-140002401D01*
X135455613Y-139915057D01*
X135572166Y-139810927D01*
X135674526Y-139691066D01*
X135761506Y-139556532D01*
X135831919Y-139408379D01*
X135883546Y-139251614D01*
X135901019Y-139162086D01*
X135911003Y-139059701D01*
X135913295Y-138952973D01*
X135907693Y-138850414D01*
X135895136Y-138765844D01*
X135850061Y-138602991D01*
X135786353Y-138451413D01*
X135705112Y-138312297D01*
X135607441Y-138186833D01*
X135494441Y-138076209D01*
X135367216Y-137981613D01*
X135226867Y-137904234D01*
X135074497Y-137845261D01*
X135029222Y-137832044D01*
X134916333Y-137801369D01*
X134140222Y-137797610D01*
X133364111Y-137793852D01*
X133364111Y-140165666D01*
X132980289Y-140165666D01*
X132980289Y-137399888D01*
X133364111Y-137399888D01*
X133899516Y-137399888D01*
X134024356Y-137399623D01*
X134140468Y-137398853D01*
X134245677Y-137397622D01*
X134337806Y-137395971D01*
X134414681Y-137393943D01*
X134474127Y-137391578D01*
X134513969Y-137388919D01*
X134523227Y-137387879D01*
X134661882Y-137357913D01*
X134796296Y-137307151D01*
X134922766Y-137237370D01*
X135037593Y-137150345D01*
X135059051Y-137130824D01*
X135159749Y-137021470D01*
X135241164Y-136901313D01*
X135302814Y-136772052D01*
X135344215Y-136635387D01*
X135364884Y-136493017D01*
X135364339Y-136346641D01*
X135342095Y-136197961D01*
X135333895Y-136163755D01*
X135315677Y-136107171D01*
X135288438Y-136039927D01*
X135255874Y-135970015D01*
X135221682Y-135905430D01*
X135192992Y-135859073D01*
X135103875Y-135749090D01*
X134998097Y-135652623D01*
X134878317Y-135571510D01*
X134747194Y-135507586D01*
X134625372Y-135467229D01*
X134603695Y-135461783D01*
X134582235Y-135457187D01*
X134558873Y-135453353D01*
X134531489Y-135450189D01*
X134497966Y-135447607D01*
X134456185Y-135445516D01*
X134404025Y-135443826D01*
X134339370Y-135442448D01*
X134260100Y-135441292D01*
X134164096Y-135440267D01*
X134049239Y-135439284D01*
X133948311Y-135438512D01*
X133364111Y-135434162D01*
X133364111Y-137399888D01*
X132980289Y-137399888D01*
X132980289Y-135179316D01*
X133005689Y-135141996D01*
X133031485Y-135110310D01*
X133060355Y-135083043D01*
X133062954Y-135081060D01*
X133069927Y-135076221D01*
X133077942Y-135072082D01*
X133088737Y-135068579D01*
X133104047Y-135065647D01*
X133125611Y-135063222D01*
X133155165Y-135061240D01*
X133194446Y-135059636D01*
X133245190Y-135058346D01*
X133309136Y-135057305D01*
X133388020Y-135056449D01*
X133483578Y-135055713D01*
X133597549Y-135055033D01*
X133731668Y-135054345D01*
X133791087Y-135054054D01*
X133967200Y-135053424D01*
X134120939Y-135053360D01*
X134252504Y-135053864D01*
X134252504Y-135053864D01*
G37*
X134252504Y-135053864D02*
X134362090Y-135054938D01*
X134449895Y-135056585D01*
X134516118Y-135058806D01*
X134560956Y-135061605D01*
X134575370Y-135063215D01*
X134745928Y-135098584D01*
X134908751Y-135154314D01*
X135062170Y-135229227D01*
X135204513Y-135322142D01*
X135334110Y-135431879D01*
X135449291Y-135557258D01*
X135548384Y-135697100D01*
X135598704Y-135786063D01*
X135670566Y-135948389D01*
X135720879Y-136114402D01*
X135749608Y-136282566D01*
X135756717Y-136451348D01*
X135742171Y-136619212D01*
X135705934Y-136784623D01*
X135647970Y-136946047D01*
X135626676Y-136992764D01*
X135577267Y-137088730D01*
X135525352Y-137173332D01*
X135466212Y-137253235D01*
X135395128Y-137335103D01*
X135352394Y-137380133D01*
X135312611Y-137422099D01*
X135280667Y-137457785D01*
X135258865Y-137484449D01*
X135249510Y-137499351D01*
X135250390Y-137501543D01*
X135266777Y-137506004D01*
X135298618Y-137518019D01*
X135340900Y-137535611D01*
X135376611Y-137551349D01*
X135534924Y-137634745D01*
X135683634Y-137736943D01*
X135820784Y-137855749D01*
X135944416Y-137988970D01*
X136052573Y-138134413D01*
X136143298Y-138289886D01*
X136214634Y-138453194D01*
X136235158Y-138513374D01*
X136272746Y-138661320D01*
X136296259Y-138819019D01*
X136305245Y-138979618D01*
X136299252Y-139136268D01*
X136283894Y-139251266D01*
X136239870Y-139432452D01*
X136175934Y-139605037D01*
X136093348Y-139767615D01*
X135993374Y-139918779D01*
X135877271Y-140057120D01*
X135746302Y-140181233D01*
X135601729Y-140289708D01*
X135444812Y-140381140D01*
X135276813Y-140454121D01*
X135176314Y-140487001D01*
X135138008Y-140497965D01*
X135102567Y-140507563D01*
X135068265Y-140515886D01*
X135033375Y-140523026D01*
X134996170Y-140529073D01*
X134954923Y-140534118D01*
X134907907Y-140538252D01*
X134853396Y-140541565D01*
X134789661Y-140544149D01*
X134714977Y-140546095D01*
X134627617Y-140547492D01*
X134525853Y-140548433D01*
X134407958Y-140549008D01*
X134272207Y-140549308D01*
X134116871Y-140549423D01*
X133989491Y-140549443D01*
X133107805Y-140549488D01*
X133069716Y-140523820D01*
X133036838Y-140496056D01*
X133007948Y-140462932D01*
X133005957Y-140460061D01*
X132980289Y-140421972D01*
X132980289Y-140165666D01*
X133364111Y-140165666D01*
X134066844Y-140165634D01*
X134228459Y-140165407D01*
X134374878Y-140164752D01*
X134505025Y-140163685D01*
X134617828Y-140162224D01*
X134712213Y-140160385D01*
X134787106Y-140158184D01*
X134841433Y-140155639D01*
X134871178Y-140153152D01*
X135032648Y-140122504D01*
X135184668Y-140071902D01*
X135326051Y-140002401D01*
X135455613Y-139915057D01*
X135572166Y-139810927D01*
X135674526Y-139691066D01*
X135761506Y-139556532D01*
X135831919Y-139408379D01*
X135883546Y-139251614D01*
X135901019Y-139162086D01*
X135911003Y-139059701D01*
X135913295Y-138952973D01*
X135907693Y-138850414D01*
X135895136Y-138765844D01*
X135850061Y-138602991D01*
X135786353Y-138451413D01*
X135705112Y-138312297D01*
X135607441Y-138186833D01*
X135494441Y-138076209D01*
X135367216Y-137981613D01*
X135226867Y-137904234D01*
X135074497Y-137845261D01*
X135029222Y-137832044D01*
X134916333Y-137801369D01*
X134140222Y-137797610D01*
X133364111Y-137793852D01*
X133364111Y-140165666D01*
X132980289Y-140165666D01*
X132980289Y-137399888D01*
X133364111Y-137399888D01*
X133899516Y-137399888D01*
X134024356Y-137399623D01*
X134140468Y-137398853D01*
X134245677Y-137397622D01*
X134337806Y-137395971D01*
X134414681Y-137393943D01*
X134474127Y-137391578D01*
X134513969Y-137388919D01*
X134523227Y-137387879D01*
X134661882Y-137357913D01*
X134796296Y-137307151D01*
X134922766Y-137237370D01*
X135037593Y-137150345D01*
X135059051Y-137130824D01*
X135159749Y-137021470D01*
X135241164Y-136901313D01*
X135302814Y-136772052D01*
X135344215Y-136635387D01*
X135364884Y-136493017D01*
X135364339Y-136346641D01*
X135342095Y-136197961D01*
X135333895Y-136163755D01*
X135315677Y-136107171D01*
X135288438Y-136039927D01*
X135255874Y-135970015D01*
X135221682Y-135905430D01*
X135192992Y-135859073D01*
X135103875Y-135749090D01*
X134998097Y-135652623D01*
X134878317Y-135571510D01*
X134747194Y-135507586D01*
X134625372Y-135467229D01*
X134603695Y-135461783D01*
X134582235Y-135457187D01*
X134558873Y-135453353D01*
X134531489Y-135450189D01*
X134497966Y-135447607D01*
X134456185Y-135445516D01*
X134404025Y-135443826D01*
X134339370Y-135442448D01*
X134260100Y-135441292D01*
X134164096Y-135440267D01*
X134049239Y-135439284D01*
X133948311Y-135438512D01*
X133364111Y-135434162D01*
X133364111Y-137399888D01*
X132980289Y-137399888D01*
X132980289Y-135179316D01*
X133005689Y-135141996D01*
X133031485Y-135110310D01*
X133060355Y-135083043D01*
X133062954Y-135081060D01*
X133069927Y-135076221D01*
X133077942Y-135072082D01*
X133088737Y-135068579D01*
X133104047Y-135065647D01*
X133125611Y-135063222D01*
X133155165Y-135061240D01*
X133194446Y-135059636D01*
X133245190Y-135058346D01*
X133309136Y-135057305D01*
X133388020Y-135056449D01*
X133483578Y-135055713D01*
X133597549Y-135055033D01*
X133731668Y-135054345D01*
X133791087Y-135054054D01*
X133967200Y-135053424D01*
X134120939Y-135053360D01*
X134252504Y-135053864D01*
G36*
X127961804Y-135074764D02*
X128019188Y-135102012D01*
X128045523Y-135122894D01*
X128053427Y-135129846D01*
X128060580Y-135136174D01*
X128067018Y-135142982D01*
X128072780Y-135151376D01*
X128077902Y-135162460D01*
X128082423Y-135177340D01*
X128086379Y-135197122D01*
X128089808Y-135222909D01*
X128092748Y-135255808D01*
X128095236Y-135296924D01*
X128097310Y-135347361D01*
X128099007Y-135408225D01*
X128100364Y-135480621D01*
X128101420Y-135565655D01*
X128102210Y-135664430D01*
X128102774Y-135778054D01*
X128103149Y-135907630D01*
X128103371Y-136054264D01*
X128103478Y-136219060D01*
X128103509Y-136403126D01*
X128103500Y-136607564D01*
X128103489Y-136832207D01*
X128103489Y-138444007D01*
X129782711Y-136765471D01*
X129986935Y-136561390D01*
X130175737Y-136372851D01*
X130349601Y-136199376D01*
X130509015Y-136040487D01*
X130654464Y-135895705D01*
X130786435Y-135764552D01*
X130905412Y-135646549D01*
X131011884Y-135541218D01*
X131106334Y-135448081D01*
X131189251Y-135366659D01*
X131261119Y-135296474D01*
X131322425Y-135237048D01*
X131373655Y-135187902D01*
X131415295Y-135148559D01*
X131447831Y-135118538D01*
X131471749Y-135097363D01*
X131487535Y-135084555D01*
X131495676Y-135079636D01*
X131495800Y-135079606D01*
X131525862Y-135072917D01*
X131546600Y-135068032D01*
X131588290Y-135068044D01*
X131634640Y-135084500D01*
X131679714Y-135113907D01*
X131717576Y-135152773D01*
X131733874Y-135178239D01*
X131746424Y-135219975D01*
X131748994Y-135271032D01*
X131741288Y-135320334D01*
X131737955Y-135330465D01*
X131728589Y-135342335D01*
X131704097Y-135369238D01*
X131665358Y-135410278D01*
X131613251Y-135464561D01*
X131548653Y-135531193D01*
X131472442Y-135609278D01*
X131385495Y-135697921D01*
X131288692Y-135796229D01*
X131182909Y-135903307D01*
X131069026Y-136018259D01*
X130947919Y-136140192D01*
X130820467Y-136268210D01*
X130687548Y-136401419D01*
X130657868Y-136431123D01*
X130497650Y-136591527D01*
X130352879Y-136736667D01*
X130222952Y-136867160D01*
X130107268Y-136983623D01*
X130005226Y-137086673D01*
X129916224Y-137176927D01*
X129839660Y-137255003D01*
X129774932Y-137321517D01*
X129721439Y-137377087D01*
X129678579Y-137422330D01*
X129645750Y-137457863D01*
X129622352Y-137484302D01*
X129607781Y-137502266D01*
X129601437Y-137512371D01*
X129601275Y-137514857D01*
X129609464Y-137525280D01*
X129630836Y-137552478D01*
X129664626Y-137595476D01*
X129710066Y-137653298D01*
X129766388Y-137724968D01*
X129832827Y-137809510D01*
X129908614Y-137905947D01*
X129992984Y-138013305D01*
X130085169Y-138130606D01*
X130184401Y-138256875D01*
X130289915Y-138391136D01*
X130400942Y-138532413D01*
X130516717Y-138679729D01*
X130636471Y-138832110D01*
X130677548Y-138884377D01*
X130798451Y-139038221D01*
X130915620Y-139187318D01*
X131028289Y-139330692D01*
X131135691Y-139467369D01*
X131237061Y-139596374D01*
X131331633Y-139716731D01*
X131418640Y-139827466D01*
X131497317Y-139927603D01*
X131566897Y-140016169D01*
X131626615Y-140092187D01*
X131675705Y-140154683D01*
X131713400Y-140202683D01*
X131738934Y-140235210D01*
X131751542Y-140251291D01*
X131752746Y-140252835D01*
X131762128Y-140272423D01*
X131771669Y-140302987D01*
X131773204Y-140309279D01*
X131776147Y-140368978D01*
X131760099Y-140428764D01*
X131727867Y-140482839D01*
X131682258Y-140525404D01*
X131663053Y-140536820D01*
X131624421Y-140547487D01*
X131575901Y-140548800D01*
X131527896Y-140541306D01*
X131494470Y-140527942D01*
X131483164Y-140516459D01*
X131458600Y-140487987D01*
X131421421Y-140443329D01*
X131372270Y-140383290D01*
X131311788Y-140308672D01*
X131240618Y-140220277D01*
X131159403Y-140118910D01*
X131068785Y-140005374D01*
X130969407Y-139880471D01*
X130861911Y-139745005D01*
X130746939Y-139599778D01*
X130625135Y-139445595D01*
X130497140Y-139283258D01*
X130395048Y-139153562D01*
X130274158Y-138999888D01*
X130157010Y-138850994D01*
X130044371Y-138707851D01*
X129937007Y-138571432D01*
X129835683Y-138442711D01*
X129741167Y-138322659D01*
X129654224Y-138212250D01*
X129575619Y-138112455D01*
X129506119Y-138024247D01*
X129446490Y-137948600D01*
X129397499Y-137886485D01*
X129359910Y-137838875D01*
X129334489Y-137806743D01*
X129322004Y-137791061D01*
X129320849Y-137789657D01*
X129311091Y-137795437D01*
X129286225Y-137816681D01*
X129246940Y-137852724D01*
X129193925Y-137902899D01*
X129127871Y-137966541D01*
X129049466Y-138042983D01*
X128959401Y-138131561D01*
X128858364Y-138231607D01*
X128747046Y-138342457D01*
X128707421Y-138382045D01*
X128103967Y-138985420D01*
X128100906Y-139708188D01*
X128097844Y-140430955D01*
X128071494Y-140467900D01*
X128027325Y-140511618D01*
X127972053Y-140538771D01*
X127911099Y-140548176D01*
X127849887Y-140538649D01*
X127815852Y-140523673D01*
X127779454Y-140495420D01*
X127748980Y-140459083D01*
X127745482Y-140453303D01*
X127720038Y-140408377D01*
X127719852Y-137814392D01*
X127719814Y-137525936D01*
X127719759Y-137259194D01*
X127719709Y-137013301D01*
X127719686Y-136787395D01*
X127719714Y-136580611D01*
X127719816Y-136392084D01*
X127720013Y-136220952D01*
X127720329Y-136066351D01*
X127720786Y-135927416D01*
X127721407Y-135803283D01*
X127722215Y-135693089D01*
X127723233Y-135595970D01*
X127724483Y-135511061D01*
X127725987Y-135437500D01*
X127727770Y-135374421D01*
X127729852Y-135320961D01*
X127732258Y-135276257D01*
X127735009Y-135239443D01*
X127738128Y-135209657D01*
X127741639Y-135186035D01*
X127745564Y-135167712D01*
X127749925Y-135153824D01*
X127754745Y-135143508D01*
X127760047Y-135135900D01*
X127765854Y-135130136D01*
X127772188Y-135125351D01*
X127779073Y-135120683D01*
X127786530Y-135115266D01*
X127790886Y-135111653D01*
X127843426Y-135079398D01*
X127901807Y-135067164D01*
X127961804Y-135074764D01*
X127961804Y-135074764D01*
G37*
X127961804Y-135074764D02*
X128019188Y-135102012D01*
X128045523Y-135122894D01*
X128053427Y-135129846D01*
X128060580Y-135136174D01*
X128067018Y-135142982D01*
X128072780Y-135151376D01*
X128077902Y-135162460D01*
X128082423Y-135177340D01*
X128086379Y-135197122D01*
X128089808Y-135222909D01*
X128092748Y-135255808D01*
X128095236Y-135296924D01*
X128097310Y-135347361D01*
X128099007Y-135408225D01*
X128100364Y-135480621D01*
X128101420Y-135565655D01*
X128102210Y-135664430D01*
X128102774Y-135778054D01*
X128103149Y-135907630D01*
X128103371Y-136054264D01*
X128103478Y-136219060D01*
X128103509Y-136403126D01*
X128103500Y-136607564D01*
X128103489Y-136832207D01*
X128103489Y-138444007D01*
X129782711Y-136765471D01*
X129986935Y-136561390D01*
X130175737Y-136372851D01*
X130349601Y-136199376D01*
X130509015Y-136040487D01*
X130654464Y-135895705D01*
X130786435Y-135764552D01*
X130905412Y-135646549D01*
X131011884Y-135541218D01*
X131106334Y-135448081D01*
X131189251Y-135366659D01*
X131261119Y-135296474D01*
X131322425Y-135237048D01*
X131373655Y-135187902D01*
X131415295Y-135148559D01*
X131447831Y-135118538D01*
X131471749Y-135097363D01*
X131487535Y-135084555D01*
X131495676Y-135079636D01*
X131495800Y-135079606D01*
X131525862Y-135072917D01*
X131546600Y-135068032D01*
X131588290Y-135068044D01*
X131634640Y-135084500D01*
X131679714Y-135113907D01*
X131717576Y-135152773D01*
X131733874Y-135178239D01*
X131746424Y-135219975D01*
X131748994Y-135271032D01*
X131741288Y-135320334D01*
X131737955Y-135330465D01*
X131728589Y-135342335D01*
X131704097Y-135369238D01*
X131665358Y-135410278D01*
X131613251Y-135464561D01*
X131548653Y-135531193D01*
X131472442Y-135609278D01*
X131385495Y-135697921D01*
X131288692Y-135796229D01*
X131182909Y-135903307D01*
X131069026Y-136018259D01*
X130947919Y-136140192D01*
X130820467Y-136268210D01*
X130687548Y-136401419D01*
X130657868Y-136431123D01*
X130497650Y-136591527D01*
X130352879Y-136736667D01*
X130222952Y-136867160D01*
X130107268Y-136983623D01*
X130005226Y-137086673D01*
X129916224Y-137176927D01*
X129839660Y-137255003D01*
X129774932Y-137321517D01*
X129721439Y-137377087D01*
X129678579Y-137422330D01*
X129645750Y-137457863D01*
X129622352Y-137484302D01*
X129607781Y-137502266D01*
X129601437Y-137512371D01*
X129601275Y-137514857D01*
X129609464Y-137525280D01*
X129630836Y-137552478D01*
X129664626Y-137595476D01*
X129710066Y-137653298D01*
X129766388Y-137724968D01*
X129832827Y-137809510D01*
X129908614Y-137905947D01*
X129992984Y-138013305D01*
X130085169Y-138130606D01*
X130184401Y-138256875D01*
X130289915Y-138391136D01*
X130400942Y-138532413D01*
X130516717Y-138679729D01*
X130636471Y-138832110D01*
X130677548Y-138884377D01*
X130798451Y-139038221D01*
X130915620Y-139187318D01*
X131028289Y-139330692D01*
X131135691Y-139467369D01*
X131237061Y-139596374D01*
X131331633Y-139716731D01*
X131418640Y-139827466D01*
X131497317Y-139927603D01*
X131566897Y-140016169D01*
X131626615Y-140092187D01*
X131675705Y-140154683D01*
X131713400Y-140202683D01*
X131738934Y-140235210D01*
X131751542Y-140251291D01*
X131752746Y-140252835D01*
X131762128Y-140272423D01*
X131771669Y-140302987D01*
X131773204Y-140309279D01*
X131776147Y-140368978D01*
X131760099Y-140428764D01*
X131727867Y-140482839D01*
X131682258Y-140525404D01*
X131663053Y-140536820D01*
X131624421Y-140547487D01*
X131575901Y-140548800D01*
X131527896Y-140541306D01*
X131494470Y-140527942D01*
X131483164Y-140516459D01*
X131458600Y-140487987D01*
X131421421Y-140443329D01*
X131372270Y-140383290D01*
X131311788Y-140308672D01*
X131240618Y-140220277D01*
X131159403Y-140118910D01*
X131068785Y-140005374D01*
X130969407Y-139880471D01*
X130861911Y-139745005D01*
X130746939Y-139599778D01*
X130625135Y-139445595D01*
X130497140Y-139283258D01*
X130395048Y-139153562D01*
X130274158Y-138999888D01*
X130157010Y-138850994D01*
X130044371Y-138707851D01*
X129937007Y-138571432D01*
X129835683Y-138442711D01*
X129741167Y-138322659D01*
X129654224Y-138212250D01*
X129575619Y-138112455D01*
X129506119Y-138024247D01*
X129446490Y-137948600D01*
X129397499Y-137886485D01*
X129359910Y-137838875D01*
X129334489Y-137806743D01*
X129322004Y-137791061D01*
X129320849Y-137789657D01*
X129311091Y-137795437D01*
X129286225Y-137816681D01*
X129246940Y-137852724D01*
X129193925Y-137902899D01*
X129127871Y-137966541D01*
X129049466Y-138042983D01*
X128959401Y-138131561D01*
X128858364Y-138231607D01*
X128747046Y-138342457D01*
X128707421Y-138382045D01*
X128103967Y-138985420D01*
X128100906Y-139708188D01*
X128097844Y-140430955D01*
X128071494Y-140467900D01*
X128027325Y-140511618D01*
X127972053Y-140538771D01*
X127911099Y-140548176D01*
X127849887Y-140538649D01*
X127815852Y-140523673D01*
X127779454Y-140495420D01*
X127748980Y-140459083D01*
X127745482Y-140453303D01*
X127720038Y-140408377D01*
X127719852Y-137814392D01*
X127719814Y-137525936D01*
X127719759Y-137259194D01*
X127719709Y-137013301D01*
X127719686Y-136787395D01*
X127719714Y-136580611D01*
X127719816Y-136392084D01*
X127720013Y-136220952D01*
X127720329Y-136066351D01*
X127720786Y-135927416D01*
X127721407Y-135803283D01*
X127722215Y-135693089D01*
X127723233Y-135595970D01*
X127724483Y-135511061D01*
X127725987Y-135437500D01*
X127727770Y-135374421D01*
X127729852Y-135320961D01*
X127732258Y-135276257D01*
X127735009Y-135239443D01*
X127738128Y-135209657D01*
X127741639Y-135186035D01*
X127745564Y-135167712D01*
X127749925Y-135153824D01*
X127754745Y-135143508D01*
X127760047Y-135135900D01*
X127765854Y-135130136D01*
X127772188Y-135125351D01*
X127779073Y-135120683D01*
X127786530Y-135115266D01*
X127790886Y-135111653D01*
X127843426Y-135079398D01*
X127901807Y-135067164D01*
X127961804Y-135074764D01*
G36*
X228790500Y-137033000D02*
X228385688Y-137033000D01*
X228385688Y-136628188D01*
X228790500Y-136628188D01*
X228790500Y-137033000D01*
X228790500Y-137033000D01*
G37*
X228790500Y-137033000D02*
X228385688Y-137033000D01*
X228385688Y-136628188D01*
X228790500Y-136628188D01*
X228790500Y-137033000D01*
G36*
X229195313Y-137818813D02*
X228790500Y-137818813D01*
X228790500Y-137437813D01*
X229195313Y-137437813D01*
X229195313Y-137818813D01*
X229195313Y-137818813D01*
G37*
X229195313Y-137818813D02*
X228790500Y-137818813D01*
X228790500Y-137437813D01*
X229195313Y-137437813D01*
X229195313Y-137818813D01*
G36*
X228385688Y-137818813D02*
X228004688Y-137818813D01*
X228004688Y-137437813D01*
X228385688Y-137437813D01*
X228385688Y-137818813D01*
X228385688Y-137818813D01*
G37*
X228385688Y-137818813D02*
X228004688Y-137818813D01*
X228004688Y-137437813D01*
X228385688Y-137437813D01*
X228385688Y-137818813D01*
G36*
X229576313Y-138628438D02*
X229195313Y-138628438D01*
X229195313Y-138223625D01*
X229576313Y-138223625D01*
X229576313Y-138628438D01*
X229576313Y-138628438D01*
G37*
X229576313Y-138628438D02*
X229195313Y-138628438D01*
X229195313Y-138223625D01*
X229576313Y-138223625D01*
X229576313Y-138628438D01*
G36*
X228790500Y-138628438D02*
X228385688Y-138628438D01*
X228385688Y-138223625D01*
X228790500Y-138223625D01*
X228790500Y-138628438D01*
X228790500Y-138628438D01*
G37*
X228790500Y-138628438D02*
X228385688Y-138628438D01*
X228385688Y-138223625D01*
X228790500Y-138223625D01*
X228790500Y-138628438D01*
G36*
X228004688Y-138628438D02*
X227599875Y-138628438D01*
X227599875Y-138223625D01*
X228004688Y-138223625D01*
X228004688Y-138628438D01*
X228004688Y-138628438D01*
G37*
X228004688Y-138628438D02*
X227599875Y-138628438D01*
X227599875Y-138223625D01*
X228004688Y-138223625D01*
X228004688Y-138628438D01*
G36*
X229981125Y-139414250D02*
X229576313Y-139414250D01*
X229576313Y-139009438D01*
X229981125Y-139009438D01*
X229981125Y-139414250D01*
X229981125Y-139414250D01*
G37*
X229981125Y-139414250D02*
X229576313Y-139414250D01*
X229576313Y-139009438D01*
X229981125Y-139009438D01*
X229981125Y-139414250D01*
G36*
X227599875Y-139414250D02*
X227195063Y-139414250D01*
X227195063Y-139009438D01*
X227599875Y-139009438D01*
X227599875Y-139414250D01*
X227599875Y-139414250D01*
G37*
X227599875Y-139414250D02*
X227195063Y-139414250D01*
X227195063Y-139009438D01*
X227599875Y-139009438D01*
X227599875Y-139414250D01*
G36*
X228603969Y-135140545D02*
X228728087Y-135141915D01*
X228839799Y-135146072D01*
X228942392Y-135153419D01*
X229039156Y-135164360D01*
X229133378Y-135179298D01*
X229228347Y-135198637D01*
X229327351Y-135222781D01*
X229372630Y-135234918D01*
X229581177Y-135300156D01*
X229783265Y-135379492D01*
X229978128Y-135472528D01*
X230164999Y-135578868D01*
X230343114Y-135698116D01*
X230495260Y-135816117D01*
X230652928Y-135956842D01*
X230800265Y-136108287D01*
X230936586Y-136269385D01*
X231061208Y-136439067D01*
X231173447Y-136616266D01*
X231272620Y-136799916D01*
X231358042Y-136988947D01*
X231429030Y-137182293D01*
X231477784Y-137350303D01*
X231510855Y-137490289D01*
X231536215Y-137622225D01*
X231554607Y-137751497D01*
X231566775Y-137883493D01*
X231573461Y-138023600D01*
X231574114Y-138049000D01*
X231571395Y-138267297D01*
X231553200Y-138482080D01*
X231519535Y-138693321D01*
X231470406Y-138900989D01*
X231405819Y-139105055D01*
X231341622Y-139268987D01*
X231313539Y-139334252D01*
X231289477Y-139388410D01*
X231267608Y-139435113D01*
X231246107Y-139478013D01*
X231223146Y-139520763D01*
X231196900Y-139567015D01*
X231167775Y-139616656D01*
X231048556Y-139802927D01*
X230918452Y-139977653D01*
X230777329Y-140140965D01*
X230625055Y-140292996D01*
X230461497Y-140433880D01*
X230286524Y-140563748D01*
X230104156Y-140680275D01*
X230051327Y-140711244D01*
X230005414Y-140737221D01*
X229962765Y-140760031D01*
X229919728Y-140781501D01*
X229872651Y-140803457D01*
X229817881Y-140827725D01*
X229756487Y-140854122D01*
X229660254Y-140893669D01*
X229571536Y-140926708D01*
X229484422Y-140955195D01*
X229392998Y-140981089D01*
X229310406Y-141001822D01*
X229145890Y-141037376D01*
X228988795Y-141063053D01*
X228834567Y-141079393D01*
X228678649Y-141086936D01*
X228588094Y-141087513D01*
X228536875Y-141086998D01*
X228488754Y-141086293D01*
X228446874Y-141085460D01*
X228414378Y-141084563D01*
X228394410Y-141083665D01*
X228393625Y-141083609D01*
X228177451Y-141059657D01*
X227964694Y-141020670D01*
X227756213Y-140966967D01*
X227552868Y-140898863D01*
X227355516Y-140816676D01*
X227165018Y-140720725D01*
X226982232Y-140611326D01*
X226831276Y-140506296D01*
X226658349Y-140367949D01*
X226497665Y-140219588D01*
X226349451Y-140061539D01*
X226213929Y-139894132D01*
X226091324Y-139717694D01*
X225981861Y-139532552D01*
X225885763Y-139339035D01*
X225803256Y-139137471D01*
X225734563Y-138928188D01*
X225722418Y-138885130D01*
X225696052Y-138783335D01*
X225674667Y-138687011D01*
X225657859Y-138592867D01*
X225645225Y-138497617D01*
X225636360Y-138397970D01*
X225630862Y-138290640D01*
X225628326Y-138172336D01*
X225628045Y-138116469D01*
X225628720Y-138061108D01*
X226160794Y-138061108D01*
X226160897Y-138141246D01*
X226162563Y-138220910D01*
X226165759Y-138296037D01*
X226170456Y-138362560D01*
X226174176Y-138398250D01*
X226206050Y-138595548D01*
X226252701Y-138787163D01*
X226313951Y-138972722D01*
X226389619Y-139151849D01*
X226479527Y-139324169D01*
X226583494Y-139489309D01*
X226701341Y-139646893D01*
X226832888Y-139796547D01*
X226855224Y-139819760D01*
X226989458Y-139946834D01*
X227135160Y-140064770D01*
X227289631Y-140171590D01*
X227450169Y-140265316D01*
X227495958Y-140289004D01*
X227570366Y-140325653D01*
X227635607Y-140355872D01*
X227696104Y-140381440D01*
X227756278Y-140404134D01*
X227820551Y-140425733D01*
X227885625Y-140445727D01*
X228074838Y-140495140D01*
X228260589Y-140529591D01*
X228444327Y-140549214D01*
X228627503Y-140554142D01*
X228811564Y-140544511D01*
X228878106Y-140537531D01*
X229065438Y-140508587D01*
X229245019Y-140466778D01*
X229419357Y-140411354D01*
X229590959Y-140341564D01*
X229687916Y-140295366D01*
X229858548Y-140201947D01*
X230017964Y-140098212D01*
X230166922Y-139983474D01*
X230306179Y-139857050D01*
X230436494Y-139718254D01*
X230558624Y-139566403D01*
X230666892Y-139410759D01*
X230692018Y-139369568D01*
X230721341Y-139317440D01*
X230753041Y-139257996D01*
X230785299Y-139194856D01*
X230816293Y-139131640D01*
X230844206Y-139071967D01*
X230867215Y-139019457D01*
X230880653Y-138985625D01*
X230943520Y-138794084D01*
X230990916Y-138601345D01*
X231022800Y-138407950D01*
X231039130Y-138214440D01*
X231039868Y-138021357D01*
X231024972Y-137829242D01*
X230994402Y-137638636D01*
X230984599Y-137592594D01*
X230950950Y-137456301D01*
X230912642Y-137330118D01*
X230867704Y-137208507D01*
X230814163Y-137085932D01*
X230776504Y-137008458D01*
X230682799Y-136839610D01*
X230575974Y-136679173D01*
X230456798Y-136527868D01*
X230326037Y-136386414D01*
X230184460Y-136255531D01*
X230032834Y-136135940D01*
X229871927Y-136028360D01*
X229702507Y-135933511D01*
X229558325Y-135865980D01*
X229386697Y-135799585D01*
X229214143Y-135747587D01*
X229038656Y-135709578D01*
X228858226Y-135685151D01*
X228670845Y-135673897D01*
X228607938Y-135673007D01*
X228409843Y-135679377D01*
X228218215Y-135700022D01*
X228032281Y-135735173D01*
X227851265Y-135785067D01*
X227674394Y-135849935D01*
X227500894Y-135930013D01*
X227329991Y-136025535D01*
X227229294Y-136089744D01*
X227089861Y-136191272D01*
X226955663Y-136305778D01*
X226828341Y-136431339D01*
X226709535Y-136566031D01*
X226600886Y-136707931D01*
X226504035Y-136855115D01*
X226420622Y-137005661D01*
X226385826Y-137078580D01*
X226324423Y-137223439D01*
X226274192Y-137362678D01*
X226233935Y-137500626D01*
X226202456Y-137641614D01*
X226178556Y-137789971D01*
X226170155Y-137858500D01*
X226165392Y-137915670D01*
X226162282Y-137984561D01*
X226160794Y-138061108D01*
X225628720Y-138061108D01*
X225629790Y-137973473D01*
X225635664Y-137842606D01*
X225646238Y-137720525D01*
X225662085Y-137603885D01*
X225683777Y-137489344D01*
X225711887Y-137373559D01*
X225746986Y-137253187D01*
X225789647Y-137124884D01*
X225805341Y-137080625D01*
X225883726Y-136885906D01*
X225976566Y-136697572D01*
X226083672Y-136515885D01*
X226204852Y-136341108D01*
X226339917Y-136173503D01*
X226488674Y-136013333D01*
X226650933Y-135860860D01*
X226757771Y-135770679D01*
X226843600Y-135705186D01*
X226941139Y-135637860D01*
X227046748Y-135570912D01*
X227156786Y-135506555D01*
X227267613Y-135447000D01*
X227375589Y-135394458D01*
X227381594Y-135391715D01*
X227451554Y-135361842D01*
X227532735Y-135330456D01*
X227620767Y-135299036D01*
X227711279Y-135269062D01*
X227799901Y-135242011D01*
X227882264Y-135219364D01*
X227914150Y-135211471D01*
X228007375Y-135190703D01*
X228096349Y-135174043D01*
X228184353Y-135161152D01*
X228274669Y-135151695D01*
X228370578Y-135145332D01*
X228475360Y-135141728D01*
X228592295Y-135140544D01*
X228603969Y-135140545D01*
X228603969Y-135140545D01*
G37*
X228603969Y-135140545D02*
X228728087Y-135141915D01*
X228839799Y-135146072D01*
X228942392Y-135153419D01*
X229039156Y-135164360D01*
X229133378Y-135179298D01*
X229228347Y-135198637D01*
X229327351Y-135222781D01*
X229372630Y-135234918D01*
X229581177Y-135300156D01*
X229783265Y-135379492D01*
X229978128Y-135472528D01*
X230164999Y-135578868D01*
X230343114Y-135698116D01*
X230495260Y-135816117D01*
X230652928Y-135956842D01*
X230800265Y-136108287D01*
X230936586Y-136269385D01*
X231061208Y-136439067D01*
X231173447Y-136616266D01*
X231272620Y-136799916D01*
X231358042Y-136988947D01*
X231429030Y-137182293D01*
X231477784Y-137350303D01*
X231510855Y-137490289D01*
X231536215Y-137622225D01*
X231554607Y-137751497D01*
X231566775Y-137883493D01*
X231573461Y-138023600D01*
X231574114Y-138049000D01*
X231571395Y-138267297D01*
X231553200Y-138482080D01*
X231519535Y-138693321D01*
X231470406Y-138900989D01*
X231405819Y-139105055D01*
X231341622Y-139268987D01*
X231313539Y-139334252D01*
X231289477Y-139388410D01*
X231267608Y-139435113D01*
X231246107Y-139478013D01*
X231223146Y-139520763D01*
X231196900Y-139567015D01*
X231167775Y-139616656D01*
X231048556Y-139802927D01*
X230918452Y-139977653D01*
X230777329Y-140140965D01*
X230625055Y-140292996D01*
X230461497Y-140433880D01*
X230286524Y-140563748D01*
X230104156Y-140680275D01*
X230051327Y-140711244D01*
X230005414Y-140737221D01*
X229962765Y-140760031D01*
X229919728Y-140781501D01*
X229872651Y-140803457D01*
X229817881Y-140827725D01*
X229756487Y-140854122D01*
X229660254Y-140893669D01*
X229571536Y-140926708D01*
X229484422Y-140955195D01*
X229392998Y-140981089D01*
X229310406Y-141001822D01*
X229145890Y-141037376D01*
X228988795Y-141063053D01*
X228834567Y-141079393D01*
X228678649Y-141086936D01*
X228588094Y-141087513D01*
X228536875Y-141086998D01*
X228488754Y-141086293D01*
X228446874Y-141085460D01*
X228414378Y-141084563D01*
X228394410Y-141083665D01*
X228393625Y-141083609D01*
X228177451Y-141059657D01*
X227964694Y-141020670D01*
X227756213Y-140966967D01*
X227552868Y-140898863D01*
X227355516Y-140816676D01*
X227165018Y-140720725D01*
X226982232Y-140611326D01*
X226831276Y-140506296D01*
X226658349Y-140367949D01*
X226497665Y-140219588D01*
X226349451Y-140061539D01*
X226213929Y-139894132D01*
X226091324Y-139717694D01*
X225981861Y-139532552D01*
X225885763Y-139339035D01*
X225803256Y-139137471D01*
X225734563Y-138928188D01*
X225722418Y-138885130D01*
X225696052Y-138783335D01*
X225674667Y-138687011D01*
X225657859Y-138592867D01*
X225645225Y-138497617D01*
X225636360Y-138397970D01*
X225630862Y-138290640D01*
X225628326Y-138172336D01*
X225628045Y-138116469D01*
X225628720Y-138061108D01*
X226160794Y-138061108D01*
X226160897Y-138141246D01*
X226162563Y-138220910D01*
X226165759Y-138296037D01*
X226170456Y-138362560D01*
X226174176Y-138398250D01*
X226206050Y-138595548D01*
X226252701Y-138787163D01*
X226313951Y-138972722D01*
X226389619Y-139151849D01*
X226479527Y-139324169D01*
X226583494Y-139489309D01*
X226701341Y-139646893D01*
X226832888Y-139796547D01*
X226855224Y-139819760D01*
X226989458Y-139946834D01*
X227135160Y-140064770D01*
X227289631Y-140171590D01*
X227450169Y-140265316D01*
X227495958Y-140289004D01*
X227570366Y-140325653D01*
X227635607Y-140355872D01*
X227696104Y-140381440D01*
X227756278Y-140404134D01*
X227820551Y-140425733D01*
X227885625Y-140445727D01*
X228074838Y-140495140D01*
X228260589Y-140529591D01*
X228444327Y-140549214D01*
X228627503Y-140554142D01*
X228811564Y-140544511D01*
X228878106Y-140537531D01*
X229065438Y-140508587D01*
X229245019Y-140466778D01*
X229419357Y-140411354D01*
X229590959Y-140341564D01*
X229687916Y-140295366D01*
X229858548Y-140201947D01*
X230017964Y-140098212D01*
X230166922Y-139983474D01*
X230306179Y-139857050D01*
X230436494Y-139718254D01*
X230558624Y-139566403D01*
X230666892Y-139410759D01*
X230692018Y-139369568D01*
X230721341Y-139317440D01*
X230753041Y-139257996D01*
X230785299Y-139194856D01*
X230816293Y-139131640D01*
X230844206Y-139071967D01*
X230867215Y-139019457D01*
X230880653Y-138985625D01*
X230943520Y-138794084D01*
X230990916Y-138601345D01*
X231022800Y-138407950D01*
X231039130Y-138214440D01*
X231039868Y-138021357D01*
X231024972Y-137829242D01*
X230994402Y-137638636D01*
X230984599Y-137592594D01*
X230950950Y-137456301D01*
X230912642Y-137330118D01*
X230867704Y-137208507D01*
X230814163Y-137085932D01*
X230776504Y-137008458D01*
X230682799Y-136839610D01*
X230575974Y-136679173D01*
X230456798Y-136527868D01*
X230326037Y-136386414D01*
X230184460Y-136255531D01*
X230032834Y-136135940D01*
X229871927Y-136028360D01*
X229702507Y-135933511D01*
X229558325Y-135865980D01*
X229386697Y-135799585D01*
X229214143Y-135747587D01*
X229038656Y-135709578D01*
X228858226Y-135685151D01*
X228670845Y-135673897D01*
X228607938Y-135673007D01*
X228409843Y-135679377D01*
X228218215Y-135700022D01*
X228032281Y-135735173D01*
X227851265Y-135785067D01*
X227674394Y-135849935D01*
X227500894Y-135930013D01*
X227329991Y-136025535D01*
X227229294Y-136089744D01*
X227089861Y-136191272D01*
X226955663Y-136305778D01*
X226828341Y-136431339D01*
X226709535Y-136566031D01*
X226600886Y-136707931D01*
X226504035Y-136855115D01*
X226420622Y-137005661D01*
X226385826Y-137078580D01*
X226324423Y-137223439D01*
X226274192Y-137362678D01*
X226233935Y-137500626D01*
X226202456Y-137641614D01*
X226178556Y-137789971D01*
X226170155Y-137858500D01*
X226165392Y-137915670D01*
X226162282Y-137984561D01*
X226160794Y-138061108D01*
X225628720Y-138061108D01*
X225629790Y-137973473D01*
X225635664Y-137842606D01*
X225646238Y-137720525D01*
X225662085Y-137603885D01*
X225683777Y-137489344D01*
X225711887Y-137373559D01*
X225746986Y-137253187D01*
X225789647Y-137124884D01*
X225805341Y-137080625D01*
X225883726Y-136885906D01*
X225976566Y-136697572D01*
X226083672Y-136515885D01*
X226204852Y-136341108D01*
X226339917Y-136173503D01*
X226488674Y-136013333D01*
X226650933Y-135860860D01*
X226757771Y-135770679D01*
X226843600Y-135705186D01*
X226941139Y-135637860D01*
X227046748Y-135570912D01*
X227156786Y-135506555D01*
X227267613Y-135447000D01*
X227375589Y-135394458D01*
X227381594Y-135391715D01*
X227451554Y-135361842D01*
X227532735Y-135330456D01*
X227620767Y-135299036D01*
X227711279Y-135269062D01*
X227799901Y-135242011D01*
X227882264Y-135219364D01*
X227914150Y-135211471D01*
X228007375Y-135190703D01*
X228096349Y-135174043D01*
X228184353Y-135161152D01*
X228274669Y-135151695D01*
X228370578Y-135145332D01*
X228475360Y-135141728D01*
X228592295Y-135140544D01*
X228603969Y-135140545D01*
G04 #@! TD*
%LPC*%
D11*
G04 #@! TO.C,MX_FN2*
X109855000Y-39687500D03*
X99695000Y-39687500D03*
D12*
X104775000Y-39687500D03*
G04 #@! TD*
G04 #@! TO.C,MX_X1*
X109537500Y-120650000D03*
D11*
X104457500Y-120650000D03*
X114617500Y-120650000D03*
G04 #@! TD*
D13*
G04 #@! TO.C,USB1*
X330551250Y-30287125D03*
X321911250Y-30287125D03*
D14*
X330551250Y-34467125D03*
X321911250Y-34467125D03*
D15*
X323341250Y-33937125D03*
X329121250Y-33937125D03*
G04 #@! TD*
D16*
G04 #@! TO.C,SW2*
X368212500Y-50336250D03*
X365212500Y-50336250D03*
G04 #@! TD*
G04 #@! TO.C,SW3*
X68592500Y-103893750D03*
X68592500Y-100893750D03*
G04 #@! TD*
D12*
G04 #@! TO.C,MX_.1*
X242887500Y-120650000D03*
D11*
X237807500Y-120650000D03*
X247967500Y-120650000D03*
G04 #@! TD*
G04 #@! TO.C,MX_\002C1*
X228917500Y-120650000D03*
X218757500Y-120650000D03*
D12*
X223837500Y-120650000D03*
G04 #@! TD*
G04 #@! TO.C,MX_#1*
X66675000Y-63500000D03*
D11*
X61595000Y-63500000D03*
X71755000Y-63500000D03*
G04 #@! TD*
D12*
G04 #@! TO.C,MX_#2*
X85725000Y-63500000D03*
D11*
X80645000Y-63500000D03*
X90805000Y-63500000D03*
G04 #@! TD*
D12*
G04 #@! TO.C,MX_#3*
X104775000Y-63500000D03*
D11*
X99695000Y-63500000D03*
X109855000Y-63500000D03*
G04 #@! TD*
D12*
G04 #@! TO.C,MX_#4*
X123825000Y-63500000D03*
D11*
X118745000Y-63500000D03*
X128905000Y-63500000D03*
G04 #@! TD*
D12*
G04 #@! TO.C,MX_#5*
X142875000Y-63500000D03*
D11*
X137795000Y-63500000D03*
X147955000Y-63500000D03*
G04 #@! TD*
G04 #@! TO.C,MX_#6*
X167005000Y-63500000D03*
X156845000Y-63500000D03*
D12*
X161925000Y-63500000D03*
G04 #@! TD*
D11*
G04 #@! TO.C,MX_#7*
X186055000Y-63500000D03*
X175895000Y-63500000D03*
D12*
X180975000Y-63500000D03*
G04 #@! TD*
D11*
G04 #@! TO.C,MX_#8*
X205105000Y-63500000D03*
X194945000Y-63500000D03*
D12*
X200025000Y-63500000D03*
G04 #@! TD*
D11*
G04 #@! TO.C,MX_#9*
X224155000Y-63500000D03*
X213995000Y-63500000D03*
D12*
X219075000Y-63500000D03*
G04 #@! TD*
D11*
G04 #@! TO.C,MX_#0_1*
X243205000Y-63500000D03*
X233045000Y-63500000D03*
D12*
X238125000Y-63500000D03*
G04 #@! TD*
G04 #@! TO.C,MX_'1*
X271462500Y-101600000D03*
D11*
X266382500Y-101600000D03*
X276542500Y-101600000D03*
G04 #@! TD*
D12*
G04 #@! TO.C,MX_-1*
X257175000Y-63500000D03*
D11*
X252095000Y-63500000D03*
X262255000Y-63500000D03*
G04 #@! TD*
D12*
G04 #@! TO.C,MX_/1*
X261937500Y-120650000D03*
D11*
X256857500Y-120650000D03*
X267017500Y-120650000D03*
G04 #@! TD*
G04 #@! TO.C,MX_;1*
X257492500Y-101600000D03*
X247332500Y-101600000D03*
D12*
X252412500Y-101600000D03*
G04 #@! TD*
G04 #@! TO.C,MX_=1*
X276225000Y-63500000D03*
D11*
X271145000Y-63500000D03*
X281305000Y-63500000D03*
G04 #@! TD*
D12*
G04 #@! TO.C,MX_[1*
X266700000Y-82550000D03*
D11*
X261620000Y-82550000D03*
X271780000Y-82550000D03*
G04 #@! TD*
D12*
G04 #@! TO.C,MX_\005C1*
X309562500Y-82550000D03*
D11*
X304482500Y-82550000D03*
X314642500Y-82550000D03*
G04 #@! TD*
D12*
G04 #@! TO.C,MX_\005C2*
X290512500Y-101600000D03*
D11*
X285432500Y-101600000D03*
X295592500Y-101600000D03*
G04 #@! TD*
D12*
G04 #@! TO.C,MX_]1*
X285750000Y-82550000D03*
D11*
X280670000Y-82550000D03*
X290830000Y-82550000D03*
G04 #@! TD*
G04 #@! TO.C,MX_`1*
X52705000Y-63500000D03*
X42545000Y-63500000D03*
D12*
X47625000Y-63500000D03*
G04 #@! TD*
D11*
G04 #@! TO.C,MX_A1*
X86042500Y-101600000D03*
X75882500Y-101600000D03*
D12*
X80962500Y-101600000D03*
G04 #@! TD*
D11*
G04 #@! TO.C,MX_B1*
X171767500Y-120650000D03*
X161607500Y-120650000D03*
D12*
X166687500Y-120650000D03*
G04 #@! TD*
G04 #@! TO.C,MX_BACK1*
X304800000Y-63500000D03*
D11*
X299720000Y-63500000D03*
X309880000Y-63500000D03*
D17*
X292862000Y-56515000D03*
X316738000Y-56515000D03*
D12*
X292862000Y-71755000D03*
X316738000Y-71755000D03*
G04 #@! TD*
D11*
G04 #@! TO.C,MX_BACK2*
X300355000Y-63500000D03*
X290195000Y-63500000D03*
D12*
X295275000Y-63500000D03*
G04 #@! TD*
D11*
G04 #@! TO.C,MX_BACK3*
X319405000Y-63500000D03*
X309245000Y-63500000D03*
D12*
X314325000Y-63500000D03*
G04 #@! TD*
D11*
G04 #@! TO.C,MX_C1*
X133667500Y-120650000D03*
X123507500Y-120650000D03*
D12*
X128587500Y-120650000D03*
G04 #@! TD*
G04 #@! TO.C,MX_CLOCK1*
X54768750Y-101600000D03*
D11*
X49688750Y-101600000D03*
X59848750Y-101600000D03*
G04 #@! TD*
G04 #@! TO.C,MX_CLOCK2*
X55086250Y-101600000D03*
X44926250Y-101600000D03*
D12*
X50006250Y-101600000D03*
G04 #@! TD*
D11*
G04 #@! TO.C,MX_D1*
X124142500Y-101600000D03*
X113982500Y-101600000D03*
D12*
X119062500Y-101600000D03*
G04 #@! TD*
D11*
G04 #@! TO.C,MX_DEL1*
X343217500Y-82550000D03*
X333057500Y-82550000D03*
D12*
X338137500Y-82550000D03*
G04 #@! TD*
G04 #@! TO.C,MX_DN1*
X357187500Y-139700000D03*
D11*
X352107500Y-139700000D03*
X362267500Y-139700000D03*
G04 #@! TD*
D12*
G04 #@! TO.C,MX_E1*
X114300000Y-82550000D03*
D11*
X109220000Y-82550000D03*
X119380000Y-82550000D03*
G04 #@! TD*
G04 #@! TO.C,MX_END1*
X362267500Y-82550000D03*
X352107500Y-82550000D03*
D12*
X357187500Y-82550000D03*
G04 #@! TD*
G04 #@! TO.C,MX_ESC1*
X47625000Y-39687500D03*
D11*
X42545000Y-39687500D03*
X52705000Y-39687500D03*
G04 #@! TD*
D12*
G04 #@! TO.C,MX_F1*
X138112500Y-101600000D03*
D11*
X133032500Y-101600000D03*
X143192500Y-101600000D03*
G04 #@! TD*
D12*
G04 #@! TO.C,MX_FN1*
X85725000Y-39687500D03*
D11*
X80645000Y-39687500D03*
X90805000Y-39687500D03*
G04 #@! TD*
D12*
G04 #@! TO.C,MX_FN3*
X123825000Y-39687500D03*
D11*
X118745000Y-39687500D03*
X128905000Y-39687500D03*
G04 #@! TD*
G04 #@! TO.C,MX_FN4*
X147955000Y-39687500D03*
X137795000Y-39687500D03*
D12*
X142875000Y-39687500D03*
G04 #@! TD*
D11*
G04 #@! TO.C,MX_FN5*
X176530000Y-39687500D03*
X166370000Y-39687500D03*
D12*
X171450000Y-39687500D03*
G04 #@! TD*
G04 #@! TO.C,MX_FN6*
X190500000Y-39687500D03*
D11*
X185420000Y-39687500D03*
X195580000Y-39687500D03*
G04 #@! TD*
G04 #@! TO.C,MX_FN7*
X214630000Y-39687500D03*
X204470000Y-39687500D03*
D12*
X209550000Y-39687500D03*
G04 #@! TD*
D11*
G04 #@! TO.C,MX_FN8*
X233680000Y-39687500D03*
X223520000Y-39687500D03*
D12*
X228600000Y-39687500D03*
G04 #@! TD*
G04 #@! TO.C,MX_FN9*
X257175000Y-39687500D03*
D11*
X252095000Y-39687500D03*
X262255000Y-39687500D03*
G04 #@! TD*
D12*
G04 #@! TO.C,MX_FN10*
X276225000Y-39687500D03*
D11*
X271145000Y-39687500D03*
X281305000Y-39687500D03*
G04 #@! TD*
G04 #@! TO.C,MX_FN11*
X300355000Y-39687500D03*
X290195000Y-39687500D03*
D12*
X295275000Y-39687500D03*
G04 #@! TD*
D11*
G04 #@! TO.C,MX_FN12*
X319405000Y-39687500D03*
X309245000Y-39687500D03*
D12*
X314325000Y-39687500D03*
G04 #@! TD*
G04 #@! TO.C,MX_G1*
X157162500Y-101600000D03*
D11*
X152082500Y-101600000D03*
X162242500Y-101600000D03*
G04 #@! TD*
G04 #@! TO.C,MX_H1*
X181292500Y-101600000D03*
X171132500Y-101600000D03*
D12*
X176212500Y-101600000D03*
G04 #@! TD*
G04 #@! TO.C,MX_HOME1*
X357187500Y-63500000D03*
D11*
X352107500Y-63500000D03*
X362267500Y-63500000D03*
G04 #@! TD*
G04 #@! TO.C,MX_I1*
X214630000Y-82550000D03*
X204470000Y-82550000D03*
D12*
X209550000Y-82550000D03*
G04 #@! TD*
G04 #@! TO.C,MX_INS1*
X338137500Y-63500000D03*
D11*
X333057500Y-63500000D03*
X343217500Y-63500000D03*
G04 #@! TD*
G04 #@! TO.C,MX_J1*
X200342500Y-101600000D03*
X190182500Y-101600000D03*
D12*
X195262500Y-101600000D03*
G04 #@! TD*
D11*
G04 #@! TO.C,MX_K1*
X219392500Y-101600000D03*
X209232500Y-101600000D03*
D12*
X214312500Y-101600000D03*
G04 #@! TD*
G04 #@! TO.C,MX_L1*
X233362500Y-101600000D03*
D11*
X228282500Y-101600000D03*
X238442500Y-101600000D03*
G04 #@! TD*
D12*
G04 #@! TO.C,MX_LALT1*
X97631250Y-139700000D03*
D11*
X92551250Y-139700000D03*
X102711250Y-139700000D03*
G04 #@! TD*
D12*
G04 #@! TO.C,MX_LALT2*
X100012500Y-139700000D03*
D11*
X94932500Y-139700000D03*
X105092500Y-139700000D03*
G04 #@! TD*
D12*
G04 #@! TO.C,MX_LCTRL1*
X50006250Y-139700000D03*
D11*
X44926250Y-139700000D03*
X55086250Y-139700000D03*
G04 #@! TD*
G04 #@! TO.C,MX_LCTRL2*
X57467500Y-139700000D03*
X47307500Y-139700000D03*
D12*
X52387500Y-139700000D03*
G04 #@! TD*
G04 #@! TO.C,MX_LFT1*
X338137500Y-139700000D03*
D11*
X333057500Y-139700000D03*
X343217500Y-139700000D03*
G04 #@! TD*
G04 #@! TO.C,MX_LGUI1*
X78898750Y-139700000D03*
X68738750Y-139700000D03*
D12*
X73818750Y-139700000D03*
G04 #@! TD*
G04 #@! TO.C,MX_LGUI2*
X76200000Y-139700000D03*
D11*
X71120000Y-139700000D03*
X81280000Y-139700000D03*
G04 #@! TD*
D12*
G04 #@! TO.C,MX_LSHIFT1*
X59531250Y-120650000D03*
D11*
X54451250Y-120650000D03*
X64611250Y-120650000D03*
D17*
X47593250Y-113665000D03*
X71469250Y-113665000D03*
D12*
X47593250Y-128905000D03*
X71469250Y-128905000D03*
G04 #@! TD*
D11*
G04 #@! TO.C,MX_LSHIFT2*
X55086250Y-120650000D03*
X44926250Y-120650000D03*
D12*
X50006250Y-120650000D03*
G04 #@! TD*
G04 #@! TO.C,MX_LSHIFT3*
X71437500Y-120650000D03*
D11*
X66357500Y-120650000D03*
X76517500Y-120650000D03*
G04 #@! TD*
D12*
G04 #@! TO.C,MX_M1*
X204787500Y-120650000D03*
D11*
X199707500Y-120650000D03*
X209867500Y-120650000D03*
G04 #@! TD*
D12*
G04 #@! TO.C,MX_N1*
X185737500Y-120650000D03*
D11*
X180657500Y-120650000D03*
X190817500Y-120650000D03*
G04 #@! TD*
G04 #@! TO.C,MX_O1*
X233680000Y-82550000D03*
X223520000Y-82550000D03*
D12*
X228600000Y-82550000D03*
G04 #@! TD*
G04 #@! TO.C,MX_P1*
X247650000Y-82550000D03*
D11*
X242570000Y-82550000D03*
X252730000Y-82550000D03*
G04 #@! TD*
G04 #@! TO.C,MX_PAUSE1*
X381317500Y-39687500D03*
X371157500Y-39687500D03*
D12*
X376237500Y-39687500D03*
G04 #@! TD*
D11*
G04 #@! TO.C,MX_PGDN1*
X381317500Y-82550000D03*
X371157500Y-82550000D03*
D12*
X376237500Y-82550000D03*
G04 #@! TD*
D11*
G04 #@! TO.C,MX_PGUP1*
X381317500Y-63500000D03*
X371157500Y-63500000D03*
D12*
X376237500Y-63500000D03*
G04 #@! TD*
G04 #@! TO.C,MX_PRINT1*
X338137500Y-39687500D03*
D11*
X333057500Y-39687500D03*
X343217500Y-39687500D03*
G04 #@! TD*
D12*
G04 #@! TO.C,MX_Q1*
X76200000Y-82550000D03*
D11*
X71120000Y-82550000D03*
X81280000Y-82550000D03*
G04 #@! TD*
G04 #@! TO.C,MX_R1*
X138430000Y-82550000D03*
X128270000Y-82550000D03*
D12*
X133350000Y-82550000D03*
G04 #@! TD*
G04 #@! TO.C,MX_RALT1*
X240506250Y-139700000D03*
D11*
X235426250Y-139700000D03*
X245586250Y-139700000D03*
G04 #@! TD*
G04 #@! TO.C,MX_RALT2*
X267017500Y-139700000D03*
X256857500Y-139700000D03*
D12*
X261937500Y-139700000D03*
G04 #@! TD*
D11*
G04 #@! TO.C,MX_RCTRL1*
X317023750Y-139700000D03*
X306863750Y-139700000D03*
D12*
X311943750Y-139700000D03*
G04 #@! TD*
G04 #@! TO.C,MX_RCTRL2*
X309562500Y-139700000D03*
D11*
X304482500Y-139700000D03*
X314642500Y-139700000D03*
G04 #@! TD*
D12*
G04 #@! TO.C,MX_RETURN1*
X314356750Y-109855000D03*
X290480750Y-109855000D03*
D17*
X314356750Y-94615000D03*
X290480750Y-94615000D03*
D11*
X307498750Y-101600000D03*
X297338750Y-101600000D03*
D12*
X302418750Y-101600000D03*
G04 #@! TD*
G04 #@! TO.C,MX_RGUI1*
X264318750Y-139700000D03*
D11*
X259238750Y-139700000D03*
X269398750Y-139700000D03*
G04 #@! TD*
D12*
G04 #@! TO.C,MX_RGUI2*
X285750000Y-139700000D03*
D11*
X280670000Y-139700000D03*
X290830000Y-139700000D03*
G04 #@! TD*
D12*
G04 #@! TO.C,MX_RMENU1*
X288131250Y-139700000D03*
D11*
X283051250Y-139700000D03*
X293211250Y-139700000D03*
G04 #@! TD*
D12*
G04 #@! TO.C,MX_RSHIFT1*
X297656250Y-120650000D03*
D11*
X292576250Y-120650000D03*
X302736250Y-120650000D03*
D17*
X285718250Y-113665000D03*
X309594250Y-113665000D03*
D12*
X285718250Y-128905000D03*
X309594250Y-128905000D03*
G04 #@! TD*
D11*
G04 #@! TO.C,MX_RSHIFT2*
X293211250Y-120650000D03*
X283051250Y-120650000D03*
D12*
X288131250Y-120650000D03*
G04 #@! TD*
G04 #@! TO.C,MX_RSHIFT3*
X314325000Y-120650000D03*
D11*
X309245000Y-120650000D03*
X319405000Y-120650000D03*
G04 #@! TD*
D12*
G04 #@! TO.C,MX_RT1*
X376237500Y-139700000D03*
D11*
X371157500Y-139700000D03*
X381317500Y-139700000D03*
G04 #@! TD*
G04 #@! TO.C,MX_S1*
X105092500Y-101600000D03*
X94932500Y-101600000D03*
D12*
X100012500Y-101600000D03*
G04 #@! TD*
G04 #@! TO.C,MX_SP1*
X169068750Y-139700000D03*
D11*
X163988750Y-139700000D03*
X174148750Y-139700000D03*
D17*
X119068850Y-146685000D03*
X219068650Y-146685000D03*
D12*
X119068850Y-131445000D03*
X219068650Y-131445000D03*
G04 #@! TD*
G04 #@! TO.C,MX_SP2*
X180975000Y-139700000D03*
D11*
X175895000Y-139700000D03*
X186055000Y-139700000D03*
D17*
X123825000Y-146685000D03*
X238125000Y-146685000D03*
D12*
X123825000Y-131445000D03*
X238125000Y-131445000D03*
G04 #@! TD*
D11*
G04 #@! TO.C,MX_T1*
X157480000Y-82550000D03*
X147320000Y-82550000D03*
D12*
X152400000Y-82550000D03*
G04 #@! TD*
D11*
G04 #@! TO.C,MX_TAB1*
X57467500Y-82550000D03*
X47307500Y-82550000D03*
D12*
X52387500Y-82550000D03*
G04 #@! TD*
D11*
G04 #@! TO.C,MX_U1*
X195580000Y-82550000D03*
X185420000Y-82550000D03*
D12*
X190500000Y-82550000D03*
G04 #@! TD*
G04 #@! TO.C,MX_UP1*
X357187500Y-120650000D03*
D11*
X352107500Y-120650000D03*
X362267500Y-120650000D03*
G04 #@! TD*
G04 #@! TO.C,MX_V1*
X152717500Y-120650000D03*
X142557500Y-120650000D03*
D12*
X147637500Y-120650000D03*
G04 #@! TD*
D11*
G04 #@! TO.C,MX_W1*
X100330000Y-82550000D03*
X90170000Y-82550000D03*
D12*
X95250000Y-82550000D03*
G04 #@! TD*
D11*
G04 #@! TO.C,MX_Y1*
X176530000Y-82550000D03*
X166370000Y-82550000D03*
D12*
X171450000Y-82550000D03*
G04 #@! TD*
D11*
G04 #@! TO.C,MX_Z1*
X95567500Y-120650000D03*
X85407500Y-120650000D03*
D12*
X90487500Y-120650000D03*
G04 #@! TD*
G04 #@! TO.C,MX_RETURN2*
X311943750Y-92075000D03*
D11*
X311943750Y-86995000D03*
X311943750Y-97155000D03*
D17*
X318928750Y-104013000D03*
X318928750Y-80137000D03*
D12*
X303688750Y-104013000D03*
X303688750Y-80137000D03*
G04 #@! TD*
G04 #@! TO.C,MX_SLOCK1*
X357187500Y-39687500D03*
D11*
X352107500Y-39687500D03*
X362267500Y-39687500D03*
G04 #@! TD*
M02*
