M48
;DRILL file {KiCad (5.0.2)-1} date 4/6/2019 1:42:31 AM
;FORMAT={-:-/ absolute / inch / decimal}
FMAT,2
INCH,TZ
T1C0.0256
T2C0.0354
T3C0.0689
T4C0.1200
T5C0.1570
%
G90
G05
T1
X12.73Y-1.3361
X12.9575Y-1.3361
T2
X14.3784Y-1.9817
X14.4966Y-1.9817
X2.7005Y-3.9722
X2.7005Y-4.0903
T3
X5.6125Y-4.75
X6.0125Y-4.75
X6.925Y-5.5
X7.325Y-5.5
X8.8Y-3.25
X9.2Y-3.25
X11.7062Y-4.
X12.1062Y-4.
X5.05Y-3.25
X5.45Y-3.25
X4.4875Y-4.
X4.8875Y-4.
X10.1125Y-4.75
X10.5125Y-4.75
X6.3625Y-4.75
X6.7625Y-4.75
X10.3Y-3.25
X10.7Y-3.25
X10.4875Y-4.
X10.8875Y-4.
X8.8Y-1.5625
X9.2Y-1.5625
X10.675Y-1.5625
X11.075Y-1.5625
X6.7375Y-4.
X7.1375Y-4.
X6.55Y-3.25
X6.95Y-3.25
X7.3Y-3.25
X7.7Y-3.25
X2.8Y-5.5
X3.2Y-5.5
X11.05Y-5.5
X11.45Y-5.5
X2.6125Y-4.75
X3.0125Y-4.75
X12.0812Y-5.5
X12.4812Y-5.5
X14.6125Y-2.5
X15.0125Y-2.5
X1.7688Y-4.
X2.1687Y-4.
X9.175Y-2.5
X9.575Y-2.5
X4.675Y-1.5625
X5.075Y-1.5625
X3.175Y-2.5
X3.575Y-2.5
X1.675Y-2.5
X2.075Y-2.5
X8.6125Y-4.75
X9.0125Y-4.75
X6.925Y-2.5
X7.325Y-2.5
X3.925Y-2.5
X4.325Y-2.5
X8.05Y-3.25
X8.45Y-3.25
X1.7688Y-5.5
X2.1687Y-5.5
X8.05Y-1.5625
X8.45Y-1.5625
X3.3625Y-4.75
X3.7625Y-4.75
X1.8625Y-3.25
X2.2625Y-3.25
X7.8625Y-4.75
X8.2625Y-4.75
X6.4562Y-5.5
X6.8563Y-5.5
X2.1437Y-4.75
X2.5437Y-4.75
X5.8Y-3.25
X6.2Y-3.25
X2.8Y-3.25
X3.2Y-3.25
X5.2375Y-4.
X5.6375Y-4.
X11.8Y-2.5
X12.2Y-2.5
X6.175Y-2.5
X6.575Y-2.5
X13.1125Y-3.25
X13.5125Y-3.25
X11.05Y-3.25
X11.45Y-3.25
X3.925Y-1.5625
X4.325Y-1.5625
X8.9875Y-4.
X9.3875Y-4.
X5.9875Y-4.
X6.3875Y-4.
X12.175Y-1.5625
X12.575Y-1.5625
X11.1437Y-4.75
X11.5437Y-4.75
X14.6125Y-3.25
X15.0125Y-3.25
X3.7375Y-4.
X4.1375Y-4.
X2.7062Y-5.5
X3.1062Y-5.5
X13.8625Y-4.75
X14.2625Y-4.75
X13.1125Y-1.5625
X13.5125Y-1.5625
X13.8625Y-1.5625
X14.2625Y-1.5625
X1.9563Y-4.
X2.3562Y-4.
X4.3Y-3.25
X4.7Y-3.25
X10.675Y-2.5
X11.075Y-2.5
X4.8625Y-4.75
X5.2625Y-4.75
X4.1125Y-4.75
X4.5125Y-4.75
X11.2375Y-4.
X11.6375Y-4.
X3.6437Y-5.5
X4.0438Y-5.5
X3.7375Y-5.5
X4.1375Y-5.5
X3.55Y-3.25
X3.95Y-3.25
X11.1437Y-5.5
X11.5437Y-5.5
X7.1125Y-4.75
X7.5125Y-4.75
X14.6125Y-5.5
X15.0125Y-5.5
X13.1125Y-5.5
X13.5125Y-5.5
X10.2062Y-5.5
X10.6062Y-5.5
X1.7688Y-4.75
X2.1687Y-4.75
X1.675Y-1.5625
X2.075Y-1.5625
X13.8625Y-5.5
X14.2625Y-5.5
X4.675Y-2.5
X5.075Y-2.5
X11.425Y-2.5
X11.825Y-2.5
X11.9875Y-3.25
X12.3875Y-3.25
X13.8625Y-2.5
X14.2625Y-2.5
X8.2375Y-4.
X8.6375Y-4.
X12.2812Y-3.425
X12.2812Y-3.825
X11.5187Y-4.75
X11.9187Y-4.75
X14.6125Y-1.5625
X15.0125Y-1.5625
X11.9875Y-5.5
X12.3875Y-5.5
X1.8625Y-5.5
X2.2625Y-5.5
X13.8625Y-3.25
X14.2625Y-3.25
X7.675Y-2.5
X8.075Y-2.5
X6.55Y-1.5625
X6.95Y-1.5625
X9.925Y-2.5
X10.325Y-2.5
X3.175Y-1.5625
X3.575Y-1.5625
X2.425Y-2.5
X2.825Y-2.5
X9.7375Y-4.
X10.1375Y-4.
X9.3625Y-4.75
X9.7625Y-4.75
X9.925Y-1.5625
X10.325Y-1.5625
X7.4875Y-4.
X7.8875Y-4.
X10.1125Y-5.5
X10.5125Y-5.5
X9.55Y-3.25
X9.95Y-3.25
X12.175Y-4.75
X12.575Y-4.75
X9.2687Y-5.5
X9.6687Y-5.5
X12.175Y-2.5
X12.575Y-2.5
X5.425Y-2.5
X5.825Y-2.5
X5.425Y-1.5625
X5.825Y-1.5625
X2.9875Y-4.
X3.3875Y-4.
X8.425Y-2.5
X8.825Y-2.5
X11.425Y-1.5625
X11.825Y-1.5625
X7.3Y-1.5625
X7.7Y-1.5625
X13.1125Y-2.5
X13.5125Y-2.5
T4
X4.875Y-5.775
X9.375Y-5.775
X11.4362Y-3.725
X12.3762Y-3.725
X4.6878Y-5.775
X8.6248Y-5.775
X1.8738Y-4.475
X2.8137Y-4.475
X11.53Y-2.225
X12.47Y-2.225
X12.5563Y-3.155
X12.5563Y-4.095
X11.2487Y-4.475
X12.1887Y-4.475
T5
X10.3125Y-5.5
X9.75Y-3.25
X12.375Y-4.75
X9.4688Y-5.5
X12.375Y-2.5
X5.625Y-2.5
X5.625Y-1.5625
X3.1875Y-4.
X8.625Y-2.5
X11.625Y-1.5625
X7.5Y-1.5625
X13.3125Y-2.5
X5.8125Y-4.75
X4.875Y-5.175
X7.125Y-5.5
X9.375Y-5.175
X9.Y-3.25
X11.4362Y-4.325
X11.9062Y-4.
X12.3762Y-4.325
X5.25Y-3.25
X4.6875Y-4.
X10.3125Y-4.75
X6.5625Y-4.75
X10.5Y-3.25
X10.6875Y-4.
X9.Y-1.5625
X10.875Y-1.5625
X6.9375Y-4.
X6.75Y-3.25
X7.5Y-3.25
X3.Y-5.5
X11.25Y-5.5
X2.8125Y-4.75
X12.2812Y-5.5
X14.8125Y-2.5
X1.9688Y-4.
X9.375Y-2.5
X4.875Y-1.5625
X3.375Y-2.5
X1.875Y-2.5
X8.8125Y-4.75
X7.125Y-2.5
X4.125Y-2.5
X8.25Y-3.25
X1.9688Y-5.5
X8.25Y-1.5625
X3.5625Y-4.75
X2.0625Y-3.25
X8.0625Y-4.75
X4.6878Y-5.175
X6.6562Y-5.5
X8.6248Y-5.175
X1.8738Y-5.075
X2.3438Y-4.75
X2.8137Y-5.075
X6.Y-3.25
X3.Y-3.25
X5.4375Y-4.
X11.53Y-2.825
X12.Y-2.5
X12.47Y-2.825
X6.375Y-2.5
X13.3125Y-3.25
X11.25Y-3.25
X4.125Y-1.5625
X9.1875Y-4.
X6.1875Y-4.
X12.375Y-1.5625
X11.3438Y-4.75
X14.8125Y-3.25
X3.9375Y-4.
X2.9062Y-5.5
X14.0625Y-4.75
X13.3125Y-1.5625
X14.0625Y-1.5625
X2.1562Y-4.
X4.5Y-3.25
X10.875Y-2.5
X5.0625Y-4.75
X4.3125Y-4.75
X11.4375Y-4.
X3.8438Y-5.5
X3.9375Y-5.5
X3.75Y-3.25
X11.3438Y-5.5
X7.3125Y-4.75
X14.8125Y-5.5
X13.3125Y-5.5
X10.4062Y-5.5
X1.9688Y-4.75
X1.875Y-1.5625
X14.0625Y-5.5
X4.875Y-2.5
X11.625Y-2.5
X12.1875Y-3.25
X14.0625Y-2.5
X8.4375Y-4.
X11.9562Y-3.155
X11.9562Y-4.095
X12.2812Y-3.625
X11.2487Y-5.075
X11.7188Y-4.75
X12.1887Y-5.075
X14.8125Y-1.5625
X12.1875Y-5.5
X2.0625Y-5.5
X14.0625Y-3.25
X7.875Y-2.5
X6.75Y-1.5625
X10.125Y-2.5
X3.375Y-1.5625
X2.625Y-2.5
X9.9375Y-4.
X9.5625Y-4.75
X10.125Y-1.5625
X7.6875Y-4.
T0
M30
