M48
;DRILL file {KiCad (5.0.2)-1} date 4/6/2019 1:42:31 AM
;FORMAT={-:-/ absolute / inch / decimal}
FMAT,2
INCH,TZ
T1C0.0157
T2C0.0236
T3C0.0394
T4C0.0409
T5C0.0579
%
G90
G05
T1
X2.08Y-3.56
X2.28Y-3.565
X2.295Y-5.37
X2.37Y-1.94
X2.415Y-5.51
X2.42Y-3.69
X2.53Y-5.23
X2.53Y-5.425
X2.565Y-4.125
X2.645Y-4.95
X2.645Y-5.115
X2.665Y-1.365
X2.89Y-1.435
X2.89Y-1.715
X2.92Y-1.5
X4.205Y-1.485
X4.545Y-5.385
X4.76Y-1.32
X6.425Y-1.435
X6.425Y-1.845
X6.485Y-5.255
X6.61Y-1.315
X7.58Y-1.49
X7.735Y-5.375
X8.13Y-1.325
X8.905Y-5.32
X9.74Y-1.845
X9.795Y-1.435
X9.99Y-1.31
X10.665Y-5.06
X10.81Y-3.385
X10.955Y-1.485
X11.06Y-4.165
X11.06Y-4.905
X11.12Y-2.59
X11.17Y-1.91
X11.24Y-1.57
X11.355Y-2.895
X11.365Y-1.31
X11.395Y-3.19
X11.52Y-4.11
X11.59Y-4.09
X11.625Y-4.09
X11.635Y-3.505
X11.685Y-3.09
X11.765Y-2.09
X12.1Y-4.18
X12.1Y-4.22
X12.17Y-1.815
X12.515Y-1.695
X12.575Y-1.65
X12.575Y-1.69
X12.575Y-1.725
X12.575Y-2.59
X12.575Y-2.625
X12.575Y-2.66
X12.575Y-3.34
X12.575Y-3.375
X12.61Y-2.2
X12.61Y-2.235
X12.675Y-1.435
X12.69Y-1.51
X12.71Y-1.94
X12.71Y-1.975
X12.78Y-1.87
X12.795Y-1.46
X12.795Y-1.495
X12.895Y-5.36
X12.905Y-1.46
X12.905Y-1.495
X12.985Y-1.455
X12.985Y-1.51
X12.985Y-1.97
X13.11Y-2.59
X13.11Y-2.625
X13.11Y-2.66
X13.11Y-3.34
X13.11Y-3.375
X13.115Y-1.65
X13.115Y-1.69
X13.115Y-1.725
X13.115Y-1.76
X13.155Y-2.13
X13.17Y-4.115
X13.17Y-4.43
X13.215Y-3.995
X13.26Y-3.865
X13.375Y-2.08
X13.375Y-3.87
X13.42Y-2.14
X13.425Y-3.995
X13.495Y-4.485
X13.57Y-1.74
X13.57Y-2.68
X13.57Y-3.43
X13.625Y-5.595
X13.63Y-3.98
X13.655Y-4.8
X13.695Y-4.8
X13.725Y-5.595
X13.785Y-5.235
X13.935Y-3.84
X13.99Y-5.395
X14.01Y-3.655
X14.145Y-1.485
X14.295Y-3.87
X14.31Y-1.845
X14.32Y-1.6
X14.32Y-5.175
X14.32Y-5.525
X14.325Y-3.995
X14.35Y-3.87
X14.37Y-3.62
X14.43Y-1.715
X14.43Y-4.96
X14.43Y-5.6
X14.45Y-1.57
X14.495Y-1.835
X14.5Y-1.43
X14.5Y-4.73
X14.5Y-5.2
X14.5Y-5.445
X14.54Y-3.74
X14.55Y-5.305
X14.56Y-4.02
X14.65Y-1.835
X14.675Y-4.345
X14.675Y-4.585
X14.7Y-3.805
X14.745Y-4.24
T3
X14.825Y-4.1187
X14.825Y-4.2188
X14.825Y-4.3187
X14.925Y-4.1187
X14.925Y-4.2188
X14.925Y-4.3187
T4
X5.7625Y-4.95
X5.8625Y-4.95
X7.075Y-5.7
X7.175Y-5.7
X8.95Y-3.45
X9.05Y-3.45
X11.8562Y-4.2
X11.9562Y-4.2
X5.2Y-3.45
X5.3Y-3.45
X4.6375Y-4.2
X4.7375Y-4.2
X10.2625Y-4.95
X10.3625Y-4.95
X6.5125Y-4.95
X6.6125Y-4.95
X10.45Y-3.45
X10.55Y-3.45
X10.6375Y-4.2
X10.7375Y-4.2
X8.95Y-1.7625
X9.05Y-1.7625
X10.825Y-1.7625
X10.925Y-1.7625
X6.8875Y-4.2
X6.9875Y-4.2
X6.7Y-3.45
X6.8Y-3.45
X7.45Y-3.45
X7.55Y-3.45
X2.95Y-5.7
X3.05Y-5.7
X11.2Y-5.7
X11.3Y-5.7
X2.7625Y-4.95
X2.8625Y-4.95
X12.2312Y-5.7
X12.3312Y-5.7
X14.7625Y-2.7
X14.8625Y-2.7
X1.9187Y-4.2
X2.0187Y-4.2
X9.325Y-2.7
X9.425Y-2.7
X4.825Y-1.7625
X4.925Y-1.7625
X3.325Y-2.7
X3.425Y-2.7
X1.825Y-2.7
X1.925Y-2.7
X8.7625Y-4.95
X8.8625Y-4.95
X7.075Y-2.7
X7.175Y-2.7
X4.075Y-2.7
X4.175Y-2.7
X8.2Y-3.45
X8.3Y-3.45
X1.9187Y-5.7
X2.0187Y-5.7
X8.2Y-1.7625
X8.3Y-1.7625
X3.5125Y-4.95
X3.6125Y-4.95
X2.0125Y-3.45
X2.1125Y-3.45
X8.0125Y-4.95
X8.1125Y-4.95
X6.6063Y-5.7
X6.7062Y-5.7
X2.2937Y-4.95
X2.3937Y-4.95
X5.95Y-3.45
X6.05Y-3.45
X2.95Y-3.45
X3.05Y-3.45
X5.3875Y-4.2
X5.4875Y-4.2
X11.95Y-2.7
X12.05Y-2.7
X6.325Y-2.7
X6.425Y-2.7
X13.2625Y-3.45
X13.3625Y-3.45
X11.2Y-3.45
X11.3Y-3.45
X4.075Y-1.7625
X4.175Y-1.7625
X9.1375Y-4.2
X9.2375Y-4.2
X6.1375Y-4.2
X6.2375Y-4.2
X12.325Y-1.7625
X12.425Y-1.7625
X11.2937Y-4.95
X11.3937Y-4.95
X14.7625Y-3.45
X14.8625Y-3.45
X3.8875Y-4.2
X3.9875Y-4.2
X2.8562Y-5.7
X2.9562Y-5.7
X14.0125Y-4.95
X14.1125Y-4.95
X13.2625Y-1.7625
X13.3625Y-1.7625
X14.0125Y-1.7625
X14.1125Y-1.7625
X2.1062Y-4.2
X2.2062Y-4.2
X4.45Y-3.45
X4.55Y-3.45
X10.825Y-2.7
X10.925Y-2.7
X5.0125Y-4.95
X5.1125Y-4.95
X4.2625Y-4.95
X4.3625Y-4.95
X11.3875Y-4.2
X11.4875Y-4.2
X3.7937Y-5.7
X3.8937Y-5.7
X3.8875Y-5.7
X3.9875Y-5.7
X3.7Y-3.45
X3.8Y-3.45
X11.2937Y-5.7
X11.3937Y-5.7
X7.2625Y-4.95
X7.3625Y-4.95
X14.7625Y-5.7
X14.8625Y-5.7
X13.2625Y-5.7
X13.3625Y-5.7
X10.3562Y-5.7
X10.4562Y-5.7
X1.9187Y-4.95
X2.0187Y-4.95
X1.825Y-1.7625
X1.925Y-1.7625
X14.0125Y-5.7
X14.1125Y-5.7
X4.825Y-2.7
X4.925Y-2.7
X11.575Y-2.7
X11.675Y-2.7
X12.1375Y-3.45
X12.2375Y-3.45
X14.0125Y-2.7
X14.1125Y-2.7
X8.3875Y-4.2
X8.4875Y-4.2
X12.0812Y-3.575
X12.0812Y-3.675
X11.6687Y-4.95
X11.7687Y-4.95
X14.7625Y-1.7625
X14.8625Y-1.7625
X12.1375Y-5.7
X12.2375Y-5.7
X2.0125Y-5.7
X2.1125Y-5.7
X14.0125Y-3.45
X14.1125Y-3.45
X7.825Y-2.7
X7.925Y-2.7
X6.7Y-1.7625
X6.8Y-1.7625
X10.075Y-2.7
X10.175Y-2.7
X3.325Y-1.7625
X3.425Y-1.7625
X2.575Y-2.7
X2.675Y-2.7
X9.8875Y-4.2
X9.9875Y-4.2
X9.5125Y-4.95
X9.6125Y-4.95
X10.075Y-1.7625
X10.175Y-1.7625
X7.6375Y-4.2
X7.7375Y-4.2
X10.2625Y-5.7
X10.3625Y-5.7
X9.7Y-3.45
X9.8Y-3.45
X12.325Y-4.95
X12.425Y-4.95
X9.4187Y-5.7
X9.5187Y-5.7
X12.325Y-2.7
X12.425Y-2.7
X5.575Y-2.7
X5.675Y-2.7
X5.575Y-1.7625
X5.675Y-1.7625
X3.1375Y-4.2
X3.2375Y-4.2
X8.575Y-2.7
X8.675Y-2.7
X11.575Y-1.7625
X11.675Y-1.7625
X7.45Y-1.7625
X7.55Y-1.7625
X13.2625Y-2.7
X13.3625Y-2.7
T5
X9.975Y-1.4625
X10.225Y-1.3625
X7.5375Y-3.9
X7.7875Y-3.8
X10.1625Y-5.4
X10.4125Y-5.3
X9.6Y-3.15
X9.85Y-3.05
X12.225Y-4.65
X12.475Y-4.55
X9.3187Y-5.4
X9.5687Y-5.3
X12.225Y-2.4
X12.475Y-2.3
X5.475Y-2.4
X5.725Y-2.3
X5.475Y-1.4625
X5.725Y-1.3625
X3.0375Y-3.9
X3.2875Y-3.8
X8.475Y-2.4
X8.725Y-2.3
X11.475Y-1.4625
X11.725Y-1.3625
X7.35Y-1.4625
X7.6Y-1.3625
X13.1625Y-2.4
X13.4125Y-2.3
X5.6625Y-4.65
X5.9125Y-4.55
X6.975Y-5.4
X7.225Y-5.3
X8.85Y-3.15
X9.1Y-3.05
X11.7562Y-3.9
X12.0062Y-3.8
X5.1Y-3.15
X5.35Y-3.05
X4.5375Y-3.9
X4.7875Y-3.8
X10.1625Y-4.65
X10.4125Y-4.55
X6.4125Y-4.65
X6.6625Y-4.55
X10.35Y-3.15
X10.6Y-3.05
X10.5375Y-3.9
X10.7875Y-3.8
X8.85Y-1.4625
X9.1Y-1.3625
X10.725Y-1.4625
X10.975Y-1.3625
X6.7875Y-3.9
X7.0375Y-3.8
X6.6Y-3.15
X6.85Y-3.05
X7.35Y-3.15
X7.6Y-3.05
X2.85Y-5.4
X3.1Y-5.3
X11.1Y-5.4
X11.35Y-5.3
X2.6625Y-4.65
X2.9125Y-4.55
X12.1312Y-5.4
X12.3812Y-5.3
X14.6625Y-2.4
X14.9125Y-2.3
X1.8187Y-3.9
X2.0688Y-3.8
X9.225Y-2.4
X9.475Y-2.3
X4.725Y-1.4625
X4.975Y-1.3625
X3.225Y-2.4
X3.475Y-2.3
X1.725Y-2.4
X1.975Y-2.3
X8.6625Y-4.65
X8.9125Y-4.55
X6.975Y-2.4
X7.225Y-2.3
X3.975Y-2.4
X4.225Y-2.3
X8.1Y-3.15
X8.35Y-3.05
X1.8187Y-5.4
X2.0688Y-5.3
X8.1Y-1.4625
X8.35Y-1.3625
X3.4125Y-4.65
X3.6625Y-4.55
X1.9125Y-3.15
X2.1625Y-3.05
X7.9125Y-4.65
X8.1625Y-4.55
X6.5062Y-5.4
X6.7562Y-5.3
X2.1938Y-4.65
X2.4438Y-4.55
X5.85Y-3.15
X6.1Y-3.05
X2.85Y-3.15
X3.1Y-3.05
X5.2875Y-3.9
X5.5375Y-3.8
X11.85Y-2.4
X12.1Y-2.3
X6.225Y-2.4
X6.475Y-2.3
X13.1625Y-3.15
X13.4125Y-3.05
X11.1Y-3.15
X11.35Y-3.05
X3.975Y-1.4625
X4.225Y-1.3625
X9.0375Y-3.9
X9.2875Y-3.8
X6.0375Y-3.9
X6.2875Y-3.8
X12.225Y-1.4625
X12.475Y-1.3625
X11.1937Y-4.65
X11.4437Y-4.55
X14.6625Y-3.15
X14.9125Y-3.05
X3.7875Y-3.9
X4.0375Y-3.8
X2.7563Y-5.4
X3.0063Y-5.3
X13.9125Y-4.65
X14.1625Y-4.55
X13.1625Y-1.4625
X13.4125Y-1.3625
X13.9125Y-1.4625
X14.1625Y-1.3625
X2.0063Y-3.9
X2.2563Y-3.8
X4.35Y-3.15
X4.6Y-3.05
X10.725Y-2.4
X10.975Y-2.3
X4.9125Y-4.65
X5.1625Y-4.55
X4.1625Y-4.65
X4.4125Y-4.55
X11.2875Y-3.9
X11.5375Y-3.8
X3.6938Y-5.4
X3.9438Y-5.3
X3.7875Y-5.4
X4.0375Y-5.3
X3.6Y-3.15
X3.85Y-3.05
X11.1937Y-5.4
X11.4437Y-5.3
X7.1625Y-4.65
X7.4125Y-4.55
X14.6625Y-5.4
X14.9125Y-5.3
X13.1625Y-5.4
X13.4125Y-5.3
X10.2562Y-5.4
X10.5062Y-5.3
X1.8187Y-4.65
X2.0688Y-4.55
X1.725Y-1.4625
X1.975Y-1.3625
X13.9125Y-5.4
X14.1625Y-5.3
X4.725Y-2.4
X4.975Y-2.3
X11.475Y-2.4
X11.725Y-2.3
X12.0375Y-3.15
X12.2875Y-3.05
X13.9125Y-2.4
X14.1625Y-2.3
X8.2875Y-3.9
X8.5375Y-3.8
X12.3812Y-3.475
X12.4812Y-3.725
X11.5687Y-4.65
X11.8187Y-4.55
X14.6625Y-1.4625
X14.9125Y-1.3625
X12.0375Y-5.4
X12.2875Y-5.3
X1.9125Y-5.4
X2.1625Y-5.3
X13.9125Y-3.15
X14.1625Y-3.05
X7.725Y-2.4
X7.975Y-2.3
X6.6Y-1.4625
X6.85Y-1.3625
X9.975Y-2.4
X10.225Y-2.3
X3.225Y-1.4625
X3.475Y-1.3625
X2.475Y-2.4
X2.725Y-2.3
X9.7875Y-3.9
X10.0375Y-3.8
X9.4125Y-4.65
X9.6625Y-4.55
T2
X12.6737Y-1.1806G85X12.6737Y-1.2042
G05
X12.6737Y-1.3353G85X12.6737Y-1.3786
G05
X13.0138Y-1.1806G85X13.0138Y-1.2042
G05
X13.0138Y-1.3353G85X13.0138Y-1.3786
G05
T0
M30
