G04 #@! TF.GenerationSoftware,KiCad,Pcbnew,(5.0.2)-1*
G04 #@! TF.CreationDate,2019-04-06T01:42:21-07:00*
G04 #@! TF.ProjectId,Voyager87,566f7961-6765-4723-9837-2e6b69636164,rev?*
G04 #@! TF.SameCoordinates,Original*
G04 #@! TF.FileFunction,Paste,Bot*
G04 #@! TF.FilePolarity,Positive*
%FSLAX46Y46*%
G04 Gerber Fmt 4.6, Leading zero omitted, Abs format (unit mm)*
G04 Created by KiCad (PCBNEW (5.0.2)-1) date 4/6/2019 1:42:21 AM*
%MOMM*%
%LPD*%
G01*
G04 APERTURE LIST*
%ADD10R,1.000000X1.200000*%
%ADD11R,1.000000X0.900000*%
%ADD12R,0.300000X1.450000*%
%ADD13R,0.600000X1.450000*%
%ADD14R,1.500000X2.000000*%
%ADD15R,3.800000X2.000000*%
%ADD16R,1.100000X1.800000*%
%ADD17R,0.700000X1.500000*%
%ADD18R,1.000000X0.800000*%
%ADD19R,0.800000X1.000000*%
%ADD20R,1.500000X0.700000*%
%ADD21R,1.000000X0.750000*%
%ADD22R,0.750000X1.000000*%
%ADD23R,1.200000X1.200000*%
%ADD24R,2.030000X1.650000*%
%ADD25R,0.900000X0.800000*%
%ADD26R,0.800000X0.900000*%
%ADD27R,1.500000X1.700000*%
%ADD28R,1.000000X1.800000*%
%ADD29R,1.800000X1.000000*%
%ADD30O,1.000000X0.250000*%
%ADD31O,0.250000X1.000000*%
%ADD32C,5.000000*%
G04 APERTURE END LIST*
D10*
G04 #@! TO.C,U2*
X327413000Y-39731250D03*
D11*
X325113000Y-39531250D03*
X327413000Y-41431250D03*
X325113000Y-41431250D03*
G04 #@! TD*
D12*
G04 #@! TO.C,USB1*
X325981250Y-35382125D03*
X326481250Y-35382125D03*
X326981250Y-35382125D03*
X325481250Y-35382125D03*
X327481250Y-35382125D03*
X324981250Y-35382125D03*
X327981250Y-35382125D03*
X324481250Y-35382125D03*
D13*
X323781250Y-35382125D03*
X328681250Y-35382125D03*
X323006250Y-35382125D03*
X329456250Y-35382125D03*
G04 #@! TD*
D14*
G04 #@! TO.C,Q1*
X367587500Y-104006250D03*
X372187500Y-104006250D03*
X369887500Y-104006250D03*
D15*
X369887500Y-110306250D03*
G04 #@! TD*
D16*
G04 #@! TO.C,SW1*
X363403125Y-110256250D03*
X359703125Y-104056250D03*
X359703125Y-110256250D03*
X363403125Y-104056250D03*
G04 #@! TD*
D17*
G04 #@! TO.C,SW2*
X368962500Y-48576250D03*
X365962500Y-48576250D03*
X364462500Y-48576250D03*
D18*
X370362500Y-51436250D03*
X363062500Y-51436250D03*
X363062500Y-49226250D03*
X370362500Y-49226250D03*
G04 #@! TD*
D19*
G04 #@! TO.C,SW3*
X67482500Y-98743750D03*
X67482500Y-106043750D03*
X69692500Y-106043750D03*
X69692500Y-98743750D03*
D20*
X66832500Y-104643750D03*
X66832500Y-103143750D03*
X66832500Y-100143750D03*
G04 #@! TD*
D21*
G04 #@! TO.C,C2*
X341083000Y-99441000D03*
X339383000Y-99441000D03*
G04 #@! TD*
G04 #@! TO.C,C3*
X354037000Y-107950000D03*
X352337000Y-107950000D03*
G04 #@! TD*
G04 #@! TO.C,C4*
X354037000Y-105664000D03*
X352337000Y-105664000D03*
G04 #@! TD*
D22*
G04 #@! TO.C,C5*
X336804000Y-99480000D03*
X336804000Y-101180000D03*
G04 #@! TD*
G04 #@! TO.C,C6*
X334518000Y-109640000D03*
X334518000Y-111340000D03*
G04 #@! TD*
D21*
G04 #@! TO.C,C7*
X344512000Y-112776000D03*
X342812000Y-112776000D03*
G04 #@! TD*
G04 #@! TO.C,C8*
X346114000Y-102235000D03*
X347814000Y-102235000D03*
G04 #@! TD*
D22*
G04 #@! TO.C,CRGB1*
X360362500Y-40537500D03*
X360362500Y-38837500D03*
G04 #@! TD*
G04 #@! TO.C,CRGB2*
X339725000Y-51650000D03*
X339725000Y-49950000D03*
G04 #@! TD*
G04 #@! TO.C,CRGB3*
X279400000Y-40537500D03*
X279400000Y-38837500D03*
G04 #@! TD*
G04 #@! TO.C,CRGB4*
X247650000Y-36456250D03*
X247650000Y-38156250D03*
G04 #@! TD*
G04 #@! TO.C,CRGB5*
X193675000Y-40537500D03*
X193675000Y-38837500D03*
G04 #@! TD*
G04 #@! TO.C,CRGB6*
X161925000Y-38156250D03*
X161925000Y-36456250D03*
G04 #@! TD*
G04 #@! TO.C,CRGB7*
X107950000Y-40537500D03*
X107950000Y-38837500D03*
G04 #@! TD*
G04 #@! TO.C,CRGB8*
X72231250Y-38156250D03*
X72231250Y-36456250D03*
G04 #@! TD*
G04 #@! TO.C,CRGB9*
X62706250Y-92925000D03*
X62706250Y-91225000D03*
G04 #@! TD*
G04 #@! TO.C,CRGB10*
X59531250Y-136468750D03*
X59531250Y-138168750D03*
G04 #@! TD*
G04 #@! TO.C,CRGB11*
X114300000Y-136468750D03*
X114300000Y-138168750D03*
G04 #@! TD*
G04 #@! TO.C,CRGB12*
X154781250Y-136468750D03*
X154781250Y-138168750D03*
G04 #@! TD*
G04 #@! TO.C,CRGB13*
X195262500Y-138168750D03*
X195262500Y-136468750D03*
G04 #@! TD*
G04 #@! TO.C,CRGB14*
X226218750Y-136468750D03*
X226218750Y-138168750D03*
G04 #@! TD*
D21*
G04 #@! TO.C,CRGB15*
X275375000Y-131762500D03*
X277075000Y-131762500D03*
G04 #@! TD*
D22*
G04 #@! TO.C,CRGB16*
X326231250Y-138168750D03*
X326231250Y-136468750D03*
G04 #@! TD*
G04 #@! TO.C,CRGB17*
X360362500Y-138850000D03*
X360362500Y-140550000D03*
G04 #@! TD*
G04 #@! TO.C,CRGB18*
X361156250Y-91225000D03*
X361156250Y-92925000D03*
G04 #@! TD*
D23*
G04 #@! TO.C,D1*
X55562500Y-37093750D03*
X55562500Y-40693750D03*
G04 #@! TD*
G04 #@! TO.C,D2*
X93662500Y-37093750D03*
X93662500Y-40693750D03*
G04 #@! TD*
G04 #@! TO.C,D3*
X96837500Y-37093750D03*
X96837500Y-40693750D03*
G04 #@! TD*
G04 #@! TO.C,D4*
X131762500Y-37093750D03*
X131762500Y-40693750D03*
G04 #@! TD*
G04 #@! TO.C,D5*
X150812500Y-40693750D03*
X150812500Y-37093750D03*
G04 #@! TD*
G04 #@! TO.C,D6*
X179387500Y-37093750D03*
X179387500Y-40693750D03*
G04 #@! TD*
G04 #@! TO.C,D7*
X182562500Y-37093750D03*
X182562500Y-40693750D03*
G04 #@! TD*
G04 #@! TO.C,D8*
X217487500Y-37093750D03*
X217487500Y-40693750D03*
G04 #@! TD*
G04 #@! TO.C,D9*
X236537500Y-40693750D03*
X236537500Y-37093750D03*
G04 #@! TD*
G04 #@! TO.C,D10*
X265112500Y-37093750D03*
X265112500Y-40693750D03*
G04 #@! TD*
G04 #@! TO.C,D11*
X268287500Y-40693750D03*
X268287500Y-37093750D03*
G04 #@! TD*
G04 #@! TO.C,D12*
X303212500Y-40693750D03*
X303212500Y-37093750D03*
G04 #@! TD*
G04 #@! TO.C,D13*
X306387500Y-40693750D03*
X306387500Y-37093750D03*
G04 #@! TD*
G04 #@! TO.C,D14*
X79375000Y-118056250D03*
X79375000Y-121656250D03*
G04 #@! TD*
G04 #@! TO.C,D17*
X55562500Y-60906250D03*
X55562500Y-64506250D03*
G04 #@! TD*
G04 #@! TO.C,D18*
X74612500Y-60906250D03*
X74612500Y-64506250D03*
G04 #@! TD*
G04 #@! TO.C,D19*
X93662500Y-60906250D03*
X93662500Y-64506250D03*
G04 #@! TD*
G04 #@! TO.C,D20*
X112712500Y-60906250D03*
X112712500Y-64506250D03*
G04 #@! TD*
G04 #@! TO.C,D21*
X131762500Y-60906250D03*
X131762500Y-64506250D03*
G04 #@! TD*
G04 #@! TO.C,D22*
X150812500Y-64506250D03*
X150812500Y-60906250D03*
G04 #@! TD*
G04 #@! TO.C,D23*
X169862500Y-60906250D03*
X169862500Y-64506250D03*
G04 #@! TD*
G04 #@! TO.C,D24*
X188912500Y-64506250D03*
X188912500Y-60906250D03*
G04 #@! TD*
G04 #@! TO.C,D25*
X207962500Y-64506250D03*
X207962500Y-60906250D03*
G04 #@! TD*
G04 #@! TO.C,D26*
X227012500Y-60906250D03*
X227012500Y-64506250D03*
G04 #@! TD*
G04 #@! TO.C,D27*
X246062500Y-64506250D03*
X246062500Y-60906250D03*
G04 #@! TD*
G04 #@! TO.C,D28*
X265112500Y-64506250D03*
X265112500Y-60906250D03*
G04 #@! TD*
G04 #@! TO.C,D29*
X268287500Y-60906250D03*
X268287500Y-64506250D03*
G04 #@! TD*
G04 #@! TO.C,D30*
X287337500Y-60906250D03*
X287337500Y-64506250D03*
G04 #@! TD*
G04 #@! TO.C,D31*
X284162500Y-60906250D03*
X284162500Y-64506250D03*
G04 #@! TD*
G04 #@! TO.C,D35*
X60325000Y-82762500D03*
X60325000Y-79162500D03*
G04 #@! TD*
G04 #@! TO.C,D36*
X84137500Y-79956250D03*
X84137500Y-83556250D03*
G04 #@! TD*
G04 #@! TO.C,D37*
X103187500Y-83556250D03*
X103187500Y-79956250D03*
G04 #@! TD*
G04 #@! TO.C,D38*
X122237500Y-83556250D03*
X122237500Y-79956250D03*
G04 #@! TD*
G04 #@! TO.C,D39*
X141287500Y-83556250D03*
X141287500Y-79956250D03*
G04 #@! TD*
G04 #@! TO.C,D40*
X160337500Y-83556250D03*
X160337500Y-79956250D03*
G04 #@! TD*
G04 #@! TO.C,D41*
X179387500Y-83556250D03*
X179387500Y-79956250D03*
G04 #@! TD*
G04 #@! TO.C,D42*
X198437500Y-83556250D03*
X198437500Y-79956250D03*
G04 #@! TD*
G04 #@! TO.C,D43*
X217487500Y-79956250D03*
X217487500Y-83556250D03*
G04 #@! TD*
G04 #@! TO.C,D44*
X236537500Y-83556250D03*
X236537500Y-79956250D03*
G04 #@! TD*
G04 #@! TO.C,D45*
X255587500Y-79956250D03*
X255587500Y-83556250D03*
G04 #@! TD*
G04 #@! TO.C,D46*
X274637500Y-83556250D03*
X274637500Y-79956250D03*
G04 #@! TD*
G04 #@! TO.C,D47*
X293687500Y-79956250D03*
X293687500Y-83556250D03*
G04 #@! TD*
G04 #@! TO.C,D48*
X296862500Y-83556250D03*
X296862500Y-79956250D03*
G04 #@! TD*
G04 #@! TO.C,D52*
X62706250Y-102606250D03*
X62706250Y-99006250D03*
G04 #@! TD*
G04 #@! TO.C,D53*
X88900000Y-99006250D03*
X88900000Y-102606250D03*
G04 #@! TD*
G04 #@! TO.C,D54*
X107950000Y-99006250D03*
X107950000Y-102606250D03*
G04 #@! TD*
G04 #@! TO.C,D55*
X127000000Y-102606250D03*
X127000000Y-99006250D03*
G04 #@! TD*
G04 #@! TO.C,D56*
X146050000Y-102606250D03*
X146050000Y-99006250D03*
G04 #@! TD*
G04 #@! TO.C,D57*
X165100000Y-102606250D03*
X165100000Y-99006250D03*
G04 #@! TD*
G04 #@! TO.C,D58*
X184150000Y-102606250D03*
X184150000Y-99006250D03*
G04 #@! TD*
G04 #@! TO.C,D59*
X203200000Y-102606250D03*
X203200000Y-99006250D03*
G04 #@! TD*
G04 #@! TO.C,D60*
X222250000Y-99006250D03*
X222250000Y-102606250D03*
G04 #@! TD*
G04 #@! TO.C,D61*
X241300000Y-102606250D03*
X241300000Y-99006250D03*
G04 #@! TD*
G04 #@! TO.C,D62*
X260350000Y-102606250D03*
X260350000Y-99006250D03*
G04 #@! TD*
G04 #@! TO.C,D63*
X279400000Y-99006250D03*
X279400000Y-102606250D03*
G04 #@! TD*
G04 #@! TO.C,D65*
X282575000Y-102606250D03*
X282575000Y-99006250D03*
G04 #@! TD*
G04 #@! TO.C,D66*
X322262500Y-118056250D03*
X322262500Y-121656250D03*
G04 #@! TD*
G04 #@! TO.C,D67*
X82550000Y-118056250D03*
X82550000Y-121656250D03*
G04 #@! TD*
G04 #@! TO.C,D68*
X98425000Y-118056250D03*
X98425000Y-121656250D03*
G04 #@! TD*
G04 #@! TO.C,D69*
X117475000Y-121656250D03*
X117475000Y-118056250D03*
G04 #@! TD*
G04 #@! TO.C,D70*
X136525000Y-121656250D03*
X136525000Y-118056250D03*
G04 #@! TD*
G04 #@! TO.C,D71*
X155575000Y-121656250D03*
X155575000Y-118056250D03*
G04 #@! TD*
G04 #@! TO.C,D72*
X174625000Y-118056250D03*
X174625000Y-121656250D03*
G04 #@! TD*
G04 #@! TO.C,D73*
X193675000Y-118056250D03*
X193675000Y-121656250D03*
G04 #@! TD*
G04 #@! TO.C,D74*
X212725000Y-121656250D03*
X212725000Y-118056250D03*
G04 #@! TD*
G04 #@! TO.C,D75*
X231775000Y-121656250D03*
X231775000Y-118056250D03*
G04 #@! TD*
G04 #@! TO.C,D76*
X250825000Y-121656250D03*
X250825000Y-118056250D03*
G04 #@! TD*
G04 #@! TO.C,D77*
X269875000Y-118056250D03*
X269875000Y-121656250D03*
G04 #@! TD*
G04 #@! TO.C,D78*
X305593750Y-121656250D03*
X305593750Y-118056250D03*
G04 #@! TD*
G04 #@! TO.C,D81*
X296068750Y-140706250D03*
X296068750Y-137106250D03*
G04 #@! TD*
G04 #@! TO.C,D82*
X301625000Y-140706250D03*
X301625000Y-137106250D03*
G04 #@! TD*
G04 #@! TO.C,D84*
X86518750Y-140706250D03*
X86518750Y-137106250D03*
G04 #@! TD*
G04 #@! TO.C,D85*
X83343750Y-140706250D03*
X83343750Y-137106250D03*
G04 #@! TD*
G04 #@! TO.C,D86*
X89693750Y-137106250D03*
X89693750Y-140706250D03*
G04 #@! TD*
G04 #@! TO.C,D87*
X161131250Y-137106250D03*
X161131250Y-140706250D03*
G04 #@! TD*
G04 #@! TO.C,D90*
X248443750Y-140706250D03*
X248443750Y-137106250D03*
G04 #@! TD*
G04 #@! TO.C,D91*
X254000000Y-137106250D03*
X254000000Y-140706250D03*
G04 #@! TD*
G04 #@! TO.C,D92*
X346075000Y-40693750D03*
X346075000Y-37093750D03*
G04 #@! TD*
G04 #@! TO.C,D93*
X349250000Y-37093750D03*
X349250000Y-40693750D03*
G04 #@! TD*
G04 #@! TO.C,D94*
X377825000Y-49793750D03*
X377825000Y-53393750D03*
G04 #@! TD*
G04 #@! TO.C,D95*
X346075000Y-64506250D03*
X346075000Y-60906250D03*
G04 #@! TD*
G04 #@! TO.C,D96*
X365125000Y-60906250D03*
X365125000Y-64506250D03*
G04 #@! TD*
G04 #@! TO.C,D97*
X368300000Y-64506250D03*
X368300000Y-60906250D03*
G04 #@! TD*
G04 #@! TO.C,D99*
X346075000Y-79956250D03*
X346075000Y-83556250D03*
G04 #@! TD*
G04 #@! TO.C,D100*
X365125000Y-79956250D03*
X365125000Y-83556250D03*
G04 #@! TD*
G04 #@! TO.C,D101*
X368300000Y-79956250D03*
X368300000Y-83556250D03*
G04 #@! TD*
G04 #@! TO.C,D108*
X365125000Y-118056250D03*
X365125000Y-121656250D03*
G04 #@! TD*
G04 #@! TO.C,D111*
X330200000Y-137106250D03*
X330200000Y-140706250D03*
G04 #@! TD*
G04 #@! TO.C,D112*
X349250000Y-140706250D03*
X349250000Y-137106250D03*
G04 #@! TD*
G04 #@! TO.C,D113*
X346075000Y-137106250D03*
X346075000Y-140706250D03*
G04 #@! TD*
D24*
G04 #@! TO.C,F1*
X322834000Y-44394000D03*
X322834000Y-47554000D03*
G04 #@! TD*
D25*
G04 #@! TO.C,R1*
X55562500Y-44343750D03*
X55562500Y-46143750D03*
G04 #@! TD*
G04 #@! TO.C,R2*
X93662500Y-46143750D03*
X93662500Y-44343750D03*
G04 #@! TD*
G04 #@! TO.C,R3*
X112712500Y-44343750D03*
X112712500Y-46143750D03*
G04 #@! TD*
G04 #@! TO.C,R4*
X131762500Y-46143750D03*
X131762500Y-44343750D03*
G04 #@! TD*
G04 #@! TO.C,R5*
X150812500Y-46143750D03*
X150812500Y-44343750D03*
G04 #@! TD*
G04 #@! TO.C,R6*
X179387500Y-44343750D03*
X179387500Y-46143750D03*
G04 #@! TD*
G04 #@! TO.C,R7*
X198437500Y-44343750D03*
X198437500Y-46143750D03*
G04 #@! TD*
G04 #@! TO.C,R8*
X217487500Y-46143750D03*
X217487500Y-44343750D03*
G04 #@! TD*
G04 #@! TO.C,R9*
X236537500Y-44343750D03*
X236537500Y-46143750D03*
G04 #@! TD*
G04 #@! TO.C,R10*
X265112500Y-46143750D03*
X265112500Y-44343750D03*
G04 #@! TD*
G04 #@! TO.C,R11*
X284162500Y-44343750D03*
X284162500Y-46143750D03*
G04 #@! TD*
G04 #@! TO.C,R12*
X303212500Y-44343750D03*
X303212500Y-46143750D03*
G04 #@! TD*
G04 #@! TO.C,R13*
X306387500Y-44343750D03*
X306387500Y-46143750D03*
G04 #@! TD*
G04 #@! TO.C,R14*
X79375000Y-127106250D03*
X79375000Y-125306250D03*
G04 #@! TD*
G04 #@! TO.C,R16*
X346075000Y-44343750D03*
X346075000Y-46143750D03*
G04 #@! TD*
G04 #@! TO.C,R17*
X55562500Y-69956250D03*
X55562500Y-68156250D03*
G04 #@! TD*
G04 #@! TO.C,R18*
X74612500Y-69956250D03*
X74612500Y-68156250D03*
G04 #@! TD*
G04 #@! TO.C,R19*
X93662500Y-69956250D03*
X93662500Y-68156250D03*
G04 #@! TD*
G04 #@! TO.C,R20*
X112712500Y-68156250D03*
X112712500Y-69956250D03*
G04 #@! TD*
G04 #@! TO.C,R21*
X131762500Y-69956250D03*
X131762500Y-68156250D03*
G04 #@! TD*
G04 #@! TO.C,R22*
X150812500Y-68156250D03*
X150812500Y-69956250D03*
G04 #@! TD*
G04 #@! TO.C,R23*
X169862500Y-69956250D03*
X169862500Y-68156250D03*
G04 #@! TD*
G04 #@! TO.C,R24*
X188912500Y-68156250D03*
X188912500Y-69956250D03*
G04 #@! TD*
G04 #@! TO.C,R25*
X207962500Y-69956250D03*
X207962500Y-68156250D03*
G04 #@! TD*
G04 #@! TO.C,R26*
X227012500Y-68156250D03*
X227012500Y-69956250D03*
G04 #@! TD*
G04 #@! TO.C,R27*
X246062500Y-69956250D03*
X246062500Y-68156250D03*
G04 #@! TD*
G04 #@! TO.C,R28*
X265112500Y-68156250D03*
X265112500Y-69956250D03*
G04 #@! TD*
G04 #@! TO.C,R29*
X268287500Y-69956250D03*
X268287500Y-68156250D03*
G04 #@! TD*
G04 #@! TO.C,R30*
X287337500Y-69956250D03*
X287337500Y-68156250D03*
G04 #@! TD*
G04 #@! TO.C,R31*
X284162500Y-68156250D03*
X284162500Y-69956250D03*
G04 #@! TD*
G04 #@! TO.C,R32*
X360362500Y-50906250D03*
X360362500Y-49106250D03*
G04 #@! TD*
G04 #@! TO.C,R33*
X368300000Y-43550000D03*
X368300000Y-45350000D03*
G04 #@! TD*
G04 #@! TO.C,R35*
X62706250Y-89006250D03*
X62706250Y-87206250D03*
G04 #@! TD*
G04 #@! TO.C,R36*
X84137500Y-87206250D03*
X84137500Y-89006250D03*
G04 #@! TD*
G04 #@! TO.C,R37*
X103187500Y-89006250D03*
X103187500Y-87206250D03*
G04 #@! TD*
G04 #@! TO.C,R38*
X122237500Y-87206250D03*
X122237500Y-89006250D03*
G04 #@! TD*
G04 #@! TO.C,R39*
X141287500Y-89006250D03*
X141287500Y-87206250D03*
G04 #@! TD*
G04 #@! TO.C,R40*
X160337500Y-87206250D03*
X160337500Y-89006250D03*
G04 #@! TD*
G04 #@! TO.C,R41*
X179387500Y-89006250D03*
X179387500Y-87206250D03*
G04 #@! TD*
G04 #@! TO.C,R42*
X198437500Y-87206250D03*
X198437500Y-89006250D03*
G04 #@! TD*
G04 #@! TO.C,R43*
X217487500Y-87206250D03*
X217487500Y-89006250D03*
G04 #@! TD*
G04 #@! TO.C,R44*
X236537500Y-89006250D03*
X236537500Y-87206250D03*
G04 #@! TD*
G04 #@! TO.C,R45*
X255587500Y-87206250D03*
X255587500Y-89006250D03*
G04 #@! TD*
G04 #@! TO.C,R46*
X274637500Y-89006250D03*
X274637500Y-87206250D03*
G04 #@! TD*
G04 #@! TO.C,R47*
X293687500Y-87206250D03*
X293687500Y-89006250D03*
G04 #@! TD*
G04 #@! TO.C,R48*
X296862500Y-89006250D03*
X296862500Y-87206250D03*
G04 #@! TD*
G04 #@! TO.C,R52*
X62706250Y-106256250D03*
X62706250Y-108056250D03*
G04 #@! TD*
G04 #@! TO.C,R53*
X88900000Y-108056250D03*
X88900000Y-106256250D03*
G04 #@! TD*
G04 #@! TO.C,R54*
X107950000Y-106256250D03*
X107950000Y-108056250D03*
G04 #@! TD*
G04 #@! TO.C,R55*
X127000000Y-108056250D03*
X127000000Y-106256250D03*
G04 #@! TD*
G04 #@! TO.C,R56*
X146050000Y-106256250D03*
X146050000Y-108056250D03*
G04 #@! TD*
G04 #@! TO.C,R57*
X165100000Y-108056250D03*
X165100000Y-106256250D03*
G04 #@! TD*
G04 #@! TO.C,R58*
X184150000Y-106256250D03*
X184150000Y-108056250D03*
G04 #@! TD*
G04 #@! TO.C,R59*
X203200000Y-108056250D03*
X203200000Y-106256250D03*
G04 #@! TD*
G04 #@! TO.C,R60*
X222250000Y-106256250D03*
X222250000Y-108056250D03*
G04 #@! TD*
G04 #@! TO.C,R61*
X241300000Y-108056250D03*
X241300000Y-106256250D03*
G04 #@! TD*
G04 #@! TO.C,R62*
X260350000Y-106256250D03*
X260350000Y-108056250D03*
G04 #@! TD*
G04 #@! TO.C,R63*
X279400000Y-108056250D03*
X279400000Y-106256250D03*
G04 #@! TD*
G04 #@! TO.C,R65*
X282575000Y-106256250D03*
X282575000Y-108056250D03*
G04 #@! TD*
G04 #@! TO.C,R66*
X322262500Y-125306250D03*
X322262500Y-127106250D03*
G04 #@! TD*
G04 #@! TO.C,R67*
X82550000Y-125306250D03*
X82550000Y-127106250D03*
G04 #@! TD*
G04 #@! TO.C,R68*
X98425000Y-127106250D03*
X98425000Y-125306250D03*
G04 #@! TD*
G04 #@! TO.C,R69*
X117475000Y-125306250D03*
X117475000Y-127106250D03*
G04 #@! TD*
G04 #@! TO.C,R70*
X136525000Y-125306250D03*
X136525000Y-127106250D03*
G04 #@! TD*
G04 #@! TO.C,R71*
X155575000Y-127106250D03*
X155575000Y-125306250D03*
G04 #@! TD*
G04 #@! TO.C,R72*
X174625000Y-125306250D03*
X174625000Y-127106250D03*
G04 #@! TD*
G04 #@! TO.C,R73*
X193675000Y-127106250D03*
X193675000Y-125306250D03*
G04 #@! TD*
G04 #@! TO.C,R74*
X212725000Y-125306250D03*
X212725000Y-127106250D03*
G04 #@! TD*
G04 #@! TO.C,R75*
X231775000Y-127106250D03*
X231775000Y-125306250D03*
G04 #@! TD*
G04 #@! TO.C,R76*
X250825000Y-125306250D03*
X250825000Y-127106250D03*
G04 #@! TD*
G04 #@! TO.C,R77*
X269875000Y-127106250D03*
X269875000Y-125306250D03*
G04 #@! TD*
G04 #@! TO.C,R78*
X305593750Y-127106250D03*
X305593750Y-125306250D03*
G04 #@! TD*
G04 #@! TO.C,R81*
X296068750Y-145362500D03*
X296068750Y-143562500D03*
G04 #@! TD*
G04 #@! TO.C,R82*
X301625000Y-143562500D03*
X301625000Y-145362500D03*
G04 #@! TD*
G04 #@! TO.C,R84*
X60325000Y-145362500D03*
X60325000Y-143562500D03*
G04 #@! TD*
G04 #@! TO.C,R85*
X83343750Y-143562500D03*
X83343750Y-145362500D03*
G04 #@! TD*
G04 #@! TO.C,R86*
X89693750Y-145362500D03*
X89693750Y-143562500D03*
G04 #@! TD*
G04 #@! TO.C,R87*
X161131250Y-143562500D03*
X161131250Y-145362500D03*
G04 #@! TD*
G04 #@! TO.C,R90*
X248443750Y-145362500D03*
X248443750Y-143562500D03*
G04 #@! TD*
G04 #@! TO.C,R91*
X254000000Y-143562500D03*
X254000000Y-145362500D03*
G04 #@! TD*
G04 #@! TO.C,R95*
X346075000Y-69956250D03*
X346075000Y-68156250D03*
G04 #@! TD*
G04 #@! TO.C,R96*
X365125000Y-69956250D03*
X365125000Y-68156250D03*
G04 #@! TD*
G04 #@! TO.C,R97*
X368300000Y-69956250D03*
X368300000Y-68156250D03*
G04 #@! TD*
G04 #@! TO.C,R99*
X346075000Y-87206250D03*
X346075000Y-89006250D03*
G04 #@! TD*
G04 #@! TO.C,R100*
X350837500Y-89006250D03*
X350837500Y-87206250D03*
G04 #@! TD*
G04 #@! TO.C,R101*
X348456250Y-87206250D03*
X348456250Y-89006250D03*
G04 #@! TD*
G04 #@! TO.C,R108*
X365125000Y-125306250D03*
X365125000Y-127106250D03*
G04 #@! TD*
G04 #@! TO.C,R111*
X346075000Y-145362500D03*
X346075000Y-143562500D03*
G04 #@! TD*
G04 #@! TO.C,R112*
X365125000Y-143562500D03*
X365125000Y-145362500D03*
G04 #@! TD*
G04 #@! TO.C,R113*
X368300000Y-145362500D03*
X368300000Y-143562500D03*
G04 #@! TD*
G04 #@! TO.C,RC1*
X337947000Y-95112000D03*
X337947000Y-96912000D03*
G04 #@! TD*
G04 #@! TO.C,RC2*
X339979000Y-96912000D03*
X339979000Y-95112000D03*
G04 #@! TD*
D26*
G04 #@! TO.C,RC3*
X362453125Y-100806250D03*
X360653125Y-100806250D03*
G04 #@! TD*
G04 #@! TO.C,RC4*
X334634000Y-113792000D03*
X336434000Y-113792000D03*
G04 #@! TD*
G04 #@! TO.C,RC5*
X370787500Y-100806250D03*
X368987500Y-100806250D03*
G04 #@! TD*
D25*
G04 #@! TO.C,RC6*
X322262500Y-41381250D03*
X322262500Y-39581250D03*
G04 #@! TD*
G04 #@! TO.C,RC7*
X329803125Y-39581250D03*
X329803125Y-41381250D03*
G04 #@! TD*
D27*
G04 #@! TO.C,Y1*
X349869000Y-108057000D03*
X349869000Y-105557000D03*
X347869000Y-105557000D03*
X347869000Y-108057000D03*
G04 #@! TD*
D28*
G04 #@! TO.C,RGB1*
X368312500Y-39906250D03*
X365112500Y-39906250D03*
X368312500Y-34706250D03*
X365112500Y-34706250D03*
G04 #@! TD*
D29*
G04 #@! TO.C,RGB2*
X331568750Y-52400000D03*
X331568750Y-49200000D03*
X336768750Y-52400000D03*
X336768750Y-49200000D03*
G04 #@! TD*
D28*
G04 #@! TO.C,RGB3*
X287350000Y-39906250D03*
X284150000Y-39906250D03*
X287350000Y-34706250D03*
X284150000Y-34706250D03*
G04 #@! TD*
G04 #@! TO.C,RGB4*
X241287500Y-34706250D03*
X244487500Y-34706250D03*
X241287500Y-39906250D03*
X244487500Y-39906250D03*
G04 #@! TD*
G04 #@! TO.C,RGB5*
X201625000Y-39906250D03*
X198425000Y-39906250D03*
X201625000Y-34706250D03*
X198425000Y-34706250D03*
G04 #@! TD*
G04 #@! TO.C,RGB6*
X158762500Y-39906250D03*
X155562500Y-39906250D03*
X158762500Y-34706250D03*
X155562500Y-34706250D03*
G04 #@! TD*
G04 #@! TO.C,RGB7*
X115900000Y-39906250D03*
X112700000Y-39906250D03*
X115900000Y-34706250D03*
X112700000Y-34706250D03*
G04 #@! TD*
G04 #@! TO.C,RGB8*
X69068750Y-39906250D03*
X65868750Y-39906250D03*
X69068750Y-34706250D03*
X65868750Y-34706250D03*
G04 #@! TD*
D29*
G04 #@! TO.C,RGB9*
X59750000Y-90475000D03*
X59750000Y-93675000D03*
X54550000Y-90475000D03*
X54550000Y-93675000D03*
G04 #@! TD*
D28*
G04 #@! TO.C,RGB10*
X62693750Y-134718750D03*
X65893750Y-134718750D03*
X62693750Y-139918750D03*
X65893750Y-139918750D03*
G04 #@! TD*
G04 #@! TO.C,RGB11*
X107937500Y-134718750D03*
X111137500Y-134718750D03*
X107937500Y-139918750D03*
X111137500Y-139918750D03*
G04 #@! TD*
G04 #@! TO.C,RGB12*
X148418750Y-134718750D03*
X151618750Y-134718750D03*
X148418750Y-139918750D03*
X151618750Y-139918750D03*
G04 #@! TD*
G04 #@! TO.C,RGB13*
X192100000Y-139918750D03*
X188900000Y-139918750D03*
X192100000Y-134718750D03*
X188900000Y-134718750D03*
G04 #@! TD*
G04 #@! TO.C,RGB14*
X229381250Y-134718750D03*
X232581250Y-134718750D03*
X229381250Y-139918750D03*
X232581250Y-139918750D03*
G04 #@! TD*
G04 #@! TO.C,RGB15*
X274625000Y-134718750D03*
X277825000Y-134718750D03*
X274625000Y-139918750D03*
X277825000Y-139918750D03*
G04 #@! TD*
G04 #@! TO.C,RGB16*
X323068750Y-139918750D03*
X319868750Y-139918750D03*
X323068750Y-134718750D03*
X319868750Y-134718750D03*
G04 #@! TD*
G04 #@! TO.C,RGB17*
X365112500Y-134718750D03*
X368312500Y-134718750D03*
X365112500Y-139918750D03*
X368312500Y-139918750D03*
G04 #@! TD*
D29*
G04 #@! TO.C,RGB18*
X364112500Y-93675000D03*
X364112500Y-90475000D03*
X369312500Y-93675000D03*
X369312500Y-90475000D03*
G04 #@! TD*
D30*
G04 #@! TO.C,U1*
X336817125Y-104545125D03*
X336817125Y-105045125D03*
X336817125Y-105545125D03*
X336817125Y-106045125D03*
X336817125Y-106545125D03*
X336817125Y-107045125D03*
X336817125Y-107545125D03*
X336817125Y-108045125D03*
X336817125Y-108545125D03*
X336817125Y-109045125D03*
X336817125Y-109545125D03*
D31*
X337717125Y-110445125D03*
X338217125Y-110445125D03*
X338717125Y-110445125D03*
X339217125Y-110445125D03*
X339717125Y-110445125D03*
X340217125Y-110445125D03*
X340717125Y-110445125D03*
X341217125Y-110445125D03*
X341717125Y-110445125D03*
X342217125Y-110445125D03*
X342717125Y-110445125D03*
D30*
X343617125Y-109545125D03*
X343617125Y-109045125D03*
X343617125Y-108545125D03*
X343617125Y-108045125D03*
X343617125Y-107545125D03*
X343617125Y-107045125D03*
X343617125Y-106545125D03*
X343617125Y-106045125D03*
X343617125Y-105545125D03*
X343617125Y-105045125D03*
X343617125Y-104545125D03*
D31*
X342717125Y-103645125D03*
X342217125Y-103645125D03*
X341717125Y-103645125D03*
X341217125Y-103645125D03*
X340717125Y-103645125D03*
X340217125Y-103645125D03*
X339717125Y-103645125D03*
X339217125Y-103645125D03*
X338717125Y-103645125D03*
X338217125Y-103645125D03*
X337717125Y-103645125D03*
D32*
X340217125Y-107045125D03*
G04 #@! TD*
M02*
